<svg height='100px' width='100px'  fill="#000000" xmlns:dc="http://purl.org/dc/elements/1.1/" xmlns:cc="http://creativecommons.org/ns#" xmlns:rdf="http://www.w3.org/1999/02/22-rdf-syntax-ns#" xmlns:svg="http://www.w3.org/2000/svg" xmlns="http://www.w3.org/2000/svg" xmlns:sodipodi="http://sodipodi.sourceforge.net/DTD/sodipodi-0.dtd" xmlns:inkscape="http://www.inkscape.org/namespaces/inkscape" version="1.1" x="0px" y="0px" viewBox="0 0 100 100"><g transform="translate(0,-952.36218)"><path style="text-indent:0;text-transform:none;direction:ltr;block-progression:tb;baseline-shift:baseline;color:#000000;enable-background:accumulate;" d="m 17.062518,958.36395 a 2.2149269,2.2235885 0 0 0 -1.968697,2.21875 l 0,15.6875 -6.9063295,0 a 2.2149269,2.2235885 0 0 0 -2.187496,2.21878 l 0,65.65622 a 2.2149269,2.2235885 0 0 0 2.187496,2.2187 l 83.5937025,0 a 2.2149269,2.2235885 0 0 0 2.218811,-2.2187 l 0,-65.65622 a 2.2149269,2.2235885 0 0 0 -2.218811,-2.21878 l -6.843689,0 0,-15.6875 a 2.2149269,2.2235885 0 0 0 -2.218712,-2.21875 l -65.406293,0 a 2.2149269,2.2235885 0 0 0 -0.249981,0 z m -6.656315,22.34378 79.156311,0 0,61.21867 -79.15631,0 0,-61.21867 z" fill="#000000" fill-opacity="1" fill-rule="evenodd" stroke="none" marker="none" visibility="visible" display="inline" overflow="visible"></path><path style="text-indent:0;text-transform:none;direction:ltr;block-progression:tb;baseline-shift:baseline;color:#000000;enable-background:accumulate;" d="m 21.184731,995.38705 a 2.214927,2.2235886 0 0 0 -2.214461,2.22307 l 0,34.26958 a 2.214927,2.2235886 0 0 0 2.214461,2.2231 l 57.63901,0 a 2.214927,2.2235886 0 0 0 2.214461,-2.2231 l 0,-34.26958 a 2.214927,2.2235886 0 0 0 -2.214461,-2.22307 l -57.63901,0 z" fill="#000000" fill-opacity="1" fill-rule="evenodd" stroke="none" marker="none" visibility="visible" display="inline" overflow="visible"></path><path style="text-indent:0;text-transform:none;direction:ltr;block-progression:tb;baseline-shift:baseline;color:#000000;enable-background:accumulate;" d="m 22.244109,986.01195 a 2.214927,2.2235886 0 1 0 0,4.44618 l 34.214597,0 a 2.214927,2.2235886 0 1 0 0,-4.44618 l -34.214597,0 z" fill="#000000" fill-opacity="1" fill-rule="evenodd" stroke="none" marker="none" visibility="visible" display="inline" overflow="visible"></path><path style="text-indent:0;text-transform:none;direction:ltr;block-progression:tb;baseline-shift:baseline;color:#000000;enable-background:accumulate;" d="m 73.291328,981.52145 c -3.472193,0 -6.373559,2.86855 -6.373559,6.39847 0,3.51131 2.901366,6.35906 6.373559,6.35906 3.472193,0 6.373559,-2.84775 6.373559,-6.35906 0,-3.52992 -2.901366,-6.39847 -6.373559,-6.39847 z" fill="#000000" fill-opacity="1" fill-rule="evenodd" stroke="none" marker="none" visibility="visible" display="inline" overflow="visible"></path></g></svg>