<svg height='100px' width='100px'  fill="#000000" xmlns="http://www.w3.org/2000/svg" xmlns:ooo="http://xml.openoffice.org/svg/export" xmlns:xlink="http://www.w3.org/1999/xlink" xmlns:presentation="http://sun.com/xmlns/staroffice/presentation" xmlns:smil="http://www.w3.org/2001/SMIL20/" xmlns:anim="urn:oasis:names:tc:opendocument:xmlns:animation:1.0" version="1.2" viewBox="0 0 2540 2540" preserveAspectRatio="xMidYMid" fill-rule="evenodd" stroke-width="28.222" stroke-linejoin="round" xml:space="preserve" x="0px" y="0px"><defs class="ClipPathGroup"><clipPath id="a" clipPathUnits="userSpaceOnUse"><rect x="0" y="0" width="2540" height="2540"></rect></clipPath></defs><g class="SlideGroup"><g><g><g class="Slide" clip-path="url(#a)"><g class="Page"><g class="com.sun.star.drawing.ClosedBezierShape"><g><rect class="BoundingBox" stroke="none" fill="none" x="136" y="357" width="2269" height="1525"></rect><path fill="#000000" stroke="none" d="M 1187,977 C 1187,981 1186,985 1184,990 1182,994 1179,997 1176,1000 1172,1002 1168,1004 1163,1004 1158,1004 1154,1003 1150,1001 1146,999 1143,997 1140,993 1138,989 1136,985 1136,980 L 1136,971 C 1136,953 1140,936 1146,920 1152,905 1159,892 1167,879 1174,867 1180,856 1185,845 1187,841 1189,836 1190,832 1191,828 1192,824 1192,820 1192,818 1192,816 1191,814 1190,809 1189,805 1186,801 1184,796 1181,791 1177,787 1168,776 1157,766 1147,756 1134,745 1122,733 1112,720 1106,713 1101,705 1097,697 1093,688 1090,679 1088,669 1087,664 1087,660 1087,655 1087,645 1089,636 1091,627 1094,618 1097,610 1102,602 1109,589 1119,575 1129,562 1138,550 1146,538 1153,525 1155,519 1158,513 1159,506 1161,500 1162,493 1162,486 L 1162,482 C 1162,478 1163,474 1165,470 1167,465 1170,462 1174,460 1178,457 1182,456 1186,456 1191,456 1195,457 1199,459 1203,461 1206,464 1209,468 1211,472 1213,476 1213,481 L 1213,486 C 1213,497 1211,508 1209,518 1206,528 1203,538 1199,547 1191,563 1181,578 1171,592 1162,604 1153,615 1147,627 1144,632 1142,636 1140,642 1139,646 1138,650 1138,655 1138,657 1138,659 1139,662 1139,666 1141,671 1143,675 1145,680 1148,684 1152,689 1160,699 1171,709 1181,719 1194,730 1206,742 1217,755 1222,762 1228,769 1232,777 1236,786 1240,795 1241,805 1242,810 1243,815 1243,820 1243,829 1242,837 1240,845 1238,852 1235,859 1232,866 1226,879 1219,891 1211,904 1205,915 1198,926 1194,939 1189,949 1187,960 1187,971 L 1187,977 Z M 2088,978 C 2088,982 2087,986 2085,991 2083,995 2080,998 2077,1001 2073,1003 2069,1005 2064,1005 2059,1005 2055,1004 2051,1002 2047,1000 2044,998 2041,994 2039,990 2037,986 2037,981 L 2037,972 C 2037,954 2041,937 2047,921 2053,906 2060,893 2068,880 2075,868 2081,857 2086,846 2088,842 2090,837 2091,833 2092,829 2093,825 2093,821 2093,819 2093,817 2092,815 2091,810 2090,806 2087,802 2085,797 2082,792 2078,788 2069,777 2058,767 2048,757 2035,746 2023,734 2013,721 2007,714 2002,706 1998,698 1994,689 1991,680 1989,670 1988,665 1988,661 1988,656 1988,646 1990,637 1992,628 1995,619 1998,611 2003,603 2010,590 2020,576 2030,563 2039,551 2047,539 2054,526 2056,520 2059,514 2060,507 2062,501 2063,494 2063,487 L 2063,483 C 2063,479 2064,475 2066,471 2068,466 2071,463 2075,461 2079,458 2083,457 2087,457 2092,457 2096,458 2100,460 2104,462 2107,465 2110,469 2112,473 2114,477 2114,482 L 2114,487 C 2114,498 2112,509 2110,519 2107,529 2104,539 2100,548 2092,564 2082,579 2072,593 2063,605 2054,616 2048,628 2045,633 2043,637 2041,643 2040,647 2039,651 2039,656 2039,658 2039,660 2040,663 2040,667 2042,672 2044,676 2046,681 2049,685 2053,690 2061,700 2072,710 2082,720 2095,731 2107,743 2118,756 2123,763 2129,770 2133,778 2137,787 2141,796 2142,806 2143,811 2144,816 2144,821 2144,830 2143,838 2141,846 2139,853 2136,860 2133,867 2127,880 2120,892 2112,905 2106,916 2099,927 2095,940 2090,950 2088,961 2088,972 L 2088,978 Z M 1788,878 C 1788,882 1787,886 1785,891 1783,895 1780,898 1777,901 1773,903 1769,905 1764,905 1759,905 1755,904 1751,902 1747,900 1744,898 1741,894 1739,890 1737,886 1737,881 L 1737,872 C 1737,854 1741,837 1747,821 1753,806 1760,793 1768,780 1775,768 1781,757 1786,746 1788,742 1790,737 1791,733 1792,729 1793,725 1793,721 1793,719 1793,717 1792,715 1791,710 1790,706 1787,702 1785,697 1782,692 1778,688 1769,677 1758,667 1748,657 1735,646 1723,634 1713,621 1707,614 1702,606 1698,598 1694,589 1691,580 1689,570 1688,565 1688,561 1688,556 1688,546 1690,537 1692,528 1695,519 1698,511 1703,503 1710,490 1720,476 1730,463 1739,451 1747,439 1754,426 1756,420 1759,414 1760,407 1762,401 1763,394 1763,387 L 1763,383 C 1763,379 1764,375 1766,371 1768,366 1771,363 1775,361 1779,358 1783,357 1787,357 1792,357 1796,358 1800,360 1804,362 1807,365 1810,369 1812,373 1814,377 1814,382 L 1814,387 C 1814,398 1812,409 1810,419 1807,429 1804,439 1800,448 1792,464 1782,479 1772,493 1763,505 1754,516 1748,528 1745,533 1743,537 1741,543 1740,547 1739,551 1739,556 1739,558 1739,560 1740,563 1740,567 1742,572 1744,576 1746,581 1749,585 1753,590 1761,600 1772,610 1782,620 1795,631 1807,643 1818,656 1823,663 1829,670 1833,678 1837,687 1841,696 1842,706 1843,711 1844,716 1844,721 1844,730 1843,738 1841,746 1839,753 1836,760 1833,767 1827,780 1820,792 1812,805 1806,816 1799,827 1795,840 1790,850 1788,861 1788,872 L 1788,878 Z M 1487,878 C 1487,882 1486,886 1484,891 1482,895 1479,898 1476,901 1472,903 1468,905 1463,905 1458,905 1454,904 1450,902 1446,900 1443,898 1440,894 1438,890 1436,886 1436,881 L 1436,872 C 1436,854 1440,837 1446,821 1452,806 1459,793 1467,780 1474,768 1480,757 1485,746 1487,742 1489,737 1490,733 1491,729 1492,725 1492,721 1492,719 1492,717 1491,715 1490,710 1489,706 1486,702 1484,697 1481,692 1477,688 1468,677 1457,667 1447,657 1434,646 1422,634 1412,621 1406,614 1401,606 1397,598 1393,589 1390,580 1388,570 1387,565 1387,561 1387,556 1387,546 1389,537 1391,528 1394,519 1397,511 1402,503 1409,490 1419,476 1429,463 1438,451 1446,439 1453,426 1455,420 1458,414 1459,407 1461,401 1462,394 1462,387 L 1462,383 C 1462,379 1463,375 1465,371 1467,366 1470,363 1474,361 1478,358 1482,357 1486,357 1491,357 1495,358 1499,360 1503,362 1506,365 1509,369 1511,373 1513,377 1513,382 L 1513,387 C 1513,398 1511,409 1509,419 1506,429 1503,439 1499,448 1491,464 1481,479 1471,493 1462,505 1453,516 1447,528 1444,533 1442,537 1440,543 1439,547 1438,551 1438,556 1438,558 1438,560 1439,563 1439,567 1441,572 1443,576 1445,581 1448,585 1452,590 1460,600 1471,610 1481,620 1494,631 1506,643 1517,656 1522,663 1528,670 1532,678 1536,687 1540,696 1541,706 1542,711 1543,716 1543,721 1543,730 1542,738 1540,746 1538,753 1535,760 1532,767 1526,780 1519,792 1511,805 1505,816 1498,827 1494,840 1489,850 1487,861 1487,872 L 1487,878 Z M 965,1483 C 977,1468 992,1454 1009,1440 1045,1412 1092,1387 1148,1366 1264,1323 1418,1298 1591,1298 1774,1298 1938,1326 2063,1372 2124,1395 2176,1423 2215,1454 2234,1468 2250,1484 2263,1500 2271,1510 2277,1521 2282,1531 2257,1548 2227,1563 2195,1577 2126,1607 2044,1630 1951,1647 1858,1663 1754,1672 1643,1672 1529,1672 1421,1663 1324,1645 1226,1628 1139,1604 1065,1573 1021,1554 982,1533 948,1511 953,1501 959,1492 965,1483 Z M 2303,1469 C 2288,1450 2269,1431 2247,1413 2204,1380 2148,1350 2081,1325 1951,1276 1780,1247 1591,1247 1411,1247 1251,1274 1131,1318 1069,1341 1017,1369 977,1400 956,1417 939,1434 925,1452 918,1461 912,1470 907,1479 902,1475 897,1471 893,1466 873,1447 857,1427 846,1406 835,1386 829,1365 827,1343 L 827,1332 C 827,1312 831,1292 840,1273 849,1253 862,1234 879,1216 897,1197 919,1179 945,1162 971,1145 1002,1129 1035,1114 1104,1084 1186,1061 1278,1044 1372,1028 1476,1019 1587,1019 1700,1019 1808,1028 1906,1046 2003,1063 2091,1087 2165,1118 2237,1149 2296,1184 2338,1225 2357,1244 2373,1264 2384,1285 2395,1305 2402,1326 2403,1348 2404,1351 2404,1355 2404,1359 2404,1379 2399,1399 2391,1418 2382,1438 2368,1457 2351,1475 2343,1484 2334,1492 2324,1501 2318,1490 2311,1479 2303,1469 Z M 857,1503 C 903,1547 967,1587 1045,1620 1122,1652 1213,1678 1315,1696 1415,1713 1526,1723 1643,1723 1757,1723 1864,1714 1960,1697 2057,1680 2143,1655 2215,1624 2252,1608 2284,1591 2313,1572 2332,1560 2349,1547 2364,1534 L 2310,1645 2306,1654 2298,1669 2289,1683 2277,1697 2250,1724 2218,1749 2179,1772 2136,1794 2088,1813 2035,1831 1978,1846 1917,1858 1785,1875 1640,1881 1494,1875 1359,1858 1296,1846 1237,1831 1181,1813 1130,1794 1083,1772 1041,1749 1005,1724 973,1697 948,1669 938,1654 929,1639 925,1632 C 770,1512 396,1683 289,1728 181,1774 152,1746 140,1702 126,1652 148,1610 260,1593 371,1577 660,1545 821,1461 831,1475 843,1489 857,1503 Z"></path></g></g></g></g></g></g></g></svg>