<svg height='100px' width='100px'  fill="#000000" xmlns="http://www.w3.org/2000/svg" xmlns:xlink="http://www.w3.org/1999/xlink" version="1.1" x="0px" y="0px" viewBox="0 0 100 100" enable-background="new 0 0 100 100" xml:space="preserve"><g><polygon points="61.239,71.992 61.642,73.092 62.184,74.127 62.858,75.082 63.654,75.943 64.554,76.689 65.546,77.312    66.61,77.802 67.728,78.143 68.882,78.334 69.639,78.376 70.83,78.313 71.982,78.098 73.089,77.732 74.144,77.224 75.125,76.58    76.008,75.814 76.783,74.939 77.439,73.97 77.96,72.922 78.339,71.814 78.568,70.668 78.647,69.5 78.572,68.332 78.343,67.187    77.965,66.075 77.445,65.029 76.791,64.059 76.016,63.183 75.132,62.415 74.156,61.773 73.102,61.261 71.991,60.895 70.842,60.678    69.705,60.613 68.507,60.7 67.361,60.941 66.259,61.332 65.216,61.864 64.252,62.529 63.385,63.312 62.627,64.206 61.996,65.188    61.495,66.248 61.139,67.365 60.935,68.516 60.883,69.684 60.984,70.852  "></polygon><polygon points="24.962,31.82 25.328,32.641 25.822,33.395 26.428,34.058 27.135,34.616 27.921,35.054 28.768,35.359    29.651,35.524 30.224,35.554 31.148,35.48 32.021,35.263 32.847,34.908 33.605,34.425 34.279,33.826 34.845,33.128 35.293,32.347    35.609,31.506 35.787,30.623 35.825,30.038 35.763,29.127 35.557,28.253 35.213,27.419 34.741,26.655 34.151,25.975 33.46,25.398    32.686,24.939 31.849,24.612 30.969,24.423 30.113,24.379 29.176,24.476 28.309,24.717 27.492,25.094 26.747,25.597 26.091,26.213    25.542,26.927 25.116,27.719 24.823,28.568 24.669,29.456 24.647,30.042 24.733,30.95  "></polygon><path d="M23.669,47.696c0-0.931-0.756-1.688-1.686-1.688c-0.93,0-1.687,0.757-1.687,1.688c0,0.929,0.757,1.686,1.687,1.686   C22.913,49.382,23.669,48.625,23.669,47.696z M20.955,47.696c0-0.567,0.461-1.028,1.028-1.028c0.566,0,1.027,0.461,1.027,1.028   s-0.46,1.028-1.027,1.028C21.417,48.725,20.955,48.263,20.955,47.696z"></path><polygon points="67.854,31.226 68.317,31.737 68.914,32.09 69.66,32.264 69.756,32.259 70.439,32.152 71.062,31.85 71.566,31.376    71.905,30.776 72.064,30.027 72.059,29.907 71.939,29.25 71.625,28.631 71.142,28.136 70.535,27.81 69.782,27.663 69.75,27.666    69.006,27.805 68.396,28.13 67.91,28.622 67.594,29.236 67.478,29.914 67.566,30.6  "></polygon><polygon points="89.529,89.26 89.529,89.76 89.53,89.26  "></polygon><polygon points="42.118,66.828 41.739,65.501 41.212,64.223 40.544,63.011 39.743,61.886 38.82,60.857 37.786,59.939    36.654,59.145 35.441,58.485 34.161,57.968 32.828,57.597 31.463,57.378 30.111,57.319 28.704,57.414 27.346,57.666 26.022,58.068    24.756,58.619 23.56,59.311 22.447,60.133 21.438,61.075 20.542,62.126 19.767,63.272 19.131,64.498 18.635,65.789 18.291,67.127    18.099,68.496 18.06,69.406 18.128,70.797 18.354,72.161 18.732,73.49 19.259,74.769 19.927,75.977 20.729,77.104 21.652,78.134    22.685,79.047 23.816,79.843 25.03,80.503 26.312,81.022 27.643,81.393 29.007,81.61 30.379,81.672 31.769,81.576 33.126,81.324    34.446,80.92 35.715,80.369 36.912,79.679 38.023,78.856 39.035,77.914 39.931,76.863 40.704,75.717 41.342,74.49 41.836,73.2    42.181,71.862 42.372,70.493 42.412,69.581 42.343,68.19  "></polygon><path d="M11.471,88.26h77.059V11.201H11.471V88.26z M44.309,71.196l-0.283,1.582l-0.462,1.543l-0.632,1.479l-0.796,1.397   l-0.949,1.3l-1.092,1.183l-1.216,1.051l-1.33,0.907l-1.422,0.749l-1.498,0.585l-1.557,0.411l-1.593,0.231l-1.091,0.056H30.36   L28.8,83.597l-1.588-0.253l-1.551-0.432l-1.491-0.605l-1.412-0.77l-1.317-0.926l-1.202-1.065l-1.075-1.197l-0.932-1.312   l-0.777-1.409l-0.613-1.488l-0.44-1.547l-0.262-1.588l-0.08-1.606l0.103-1.606l0.283-1.582l0.462-1.543l0.631-1.478l0.797-1.398   l0.948-1.299l1.092-1.183l1.218-1.051l1.327-0.907l1.423-0.751l1.5-0.584l1.552-0.411l1.595-0.231l1.08-0.055l1.598,0.072   l1.589,0.254l1.55,0.433l1.489,0.603l1.414,0.77l1.317,0.926l1.204,1.069l1.073,1.196l0.932,1.31l0.778,1.412l0.612,1.487   l0.439,1.545l0.262,1.588l0.081,1.606L44.309,71.196z M19.296,47.696c0-1.482,1.206-2.688,2.687-2.688   c1.481,0,2.686,1.206,2.686,2.688c0,1.481-1.205,2.686-2.686,2.686C20.502,50.382,19.296,49.177,19.296,47.696z M56.589,28.965   l9.005-0.008l0.028-0.11l0.358-0.905l0.553-0.8l0.719-0.656l0.846-0.476l0.666-0.205V16.79c0-0.551,0.448-1,1-1s1,0.449,1,1v9.013   l0.806,0.27l0.829,0.506l0.696,0.681l0.523,0.818l0.322,0.888h9.001c0.552,0,1,0.449,1,1s-0.448,1-1,1h-9.008l-0.311,0.878   l-0.521,0.82l-0.694,0.682l-0.828,0.509l-0.815,0.284v12.297c0,0.551-0.448,1-1,1s-1-0.449-1-1l-0.039-12.308l-0.91-0.341   l-0.812-0.538l-0.667-0.704l-0.493-0.84l-0.244-0.739h-9.01c-0.552,0-1-0.449-1-1S56.037,28.965,56.589,28.965z M56.589,68.494   h2.351l0.011-0.208l0.252-1.409l0.438-1.369l0.612-1.295l0.774-1.203l0.929-1.093l1.063-0.961l1.181-0.812l1.276-0.65l1.353-0.478   l1.401-0.294l0.533-0.042v-2.362c0-0.552,0.448-1,1-1s1,0.448,1,1v2.357l0.329,0.02l1.406,0.267l1.36,0.45l1.291,0.628l1.194,0.787   l1.083,0.943l0.948,1.072l0.8,1.19l0.636,1.283l0.462,1.359l0.279,1.404l0.028,0.414h2.36c0.552,0,1,0.448,1,1s-0.448,1-1,1H80.58   l-0.032,0.448l-0.282,1.402L79.8,73.701l-0.641,1.282l-0.803,1.187l-0.949,1.07l-1.085,0.938l-1.202,0.787l-1.289,0.621   l-1.36,0.447l-1.707,0.28v2.357c0,0.552-0.448,1-1,1s-1-0.448-1-1V80.31L68.2,80.263l-1.4-0.299l-1.353-0.48l-1.274-0.654   l-1.177-0.814l-1.062-0.965l-0.925-1.093l-0.773-1.209l-0.607-1.299l-0.432-1.366l-0.261-1.589h-2.347c-0.552,0-1-0.448-1-1   S56.037,68.494,56.589,68.494z M17.059,28.965h5.664l0.008-0.113l0.276-1.189l0.464-1.131l0.638-1.04l0.797-0.925l0.934-0.785   l1.05-0.625l1.135-0.448l1.211-0.263V16.79c0-0.551,0.449-1,1-1s1,0.449,1,1l0.012,5.657l1.193,0.26l1.134,0.446l1.05,0.625   l0.936,0.785l0.797,0.924l0.639,1.04l0.464,1.131l0.286,1.308h5.663c0.551,0,1,0.449,1,1s-0.449,1-1,1h-5.673l-0.031,0.314   l-0.307,1.181l-0.495,1.118L36.241,34.6l-0.822,0.904l-0.954,0.759l-1.066,0.597l-1.146,0.418l-1.016,0.193v5.67   c0,0.551-0.449,1-1,1s-1-0.449-1-1v-5.67l-0.214-0.019l-1.185-0.292l-1.124-0.478l-1.032-0.652l-0.914-0.809l-0.773-0.945   l-0.611-1.056l-0.434-1.143l-0.229-1.114h-5.663c-0.551,0-1-0.449-1-1S16.507,28.965,17.059,28.965z"></path><polygon points="23.653,29.965 23.645,29.965 23.65,30.051  "></polygon></g></svg>