<svg height='100px' width='100px'  fill="#000000" xmlns:x="http://ns.adobe.com/Extensibility/1.0/" xmlns:i="http://ns.adobe.com/AdobeIllustrator/10.0/" xmlns:graph="http://ns.adobe.com/Graphs/1.0/" xmlns="http://www.w3.org/2000/svg" xmlns:xlink="http://www.w3.org/1999/xlink" version="1.1" x="0px" y="0px" viewBox="0 0 60 60" style="enable-background:new 0 0 60 60;" xml:space="preserve"><metadata><?xpacket begin="&#65279;" id="W5M0MpCehiHzreSzNTczkc9d"?><x:xmpmeta xmlns:x="adobe:ns:meta/" x:xmptk="Adobe XMP Core 5.6-c145 79.163499, 2018/08/13-16:40:22        "></x:xmpmeta><?xpacket end="w"?></metadata><path d="M17.2719727,34.4246216v3.0446167c0,0.5522461,0.4477539,1,1,1h2v4h-2c-1.6542969,0-3,1.3457031-3,3v6  c0,1.6542969,1.3457031,3,3,3h6c1.6542969,0,3-1.3457031,3-3v-6c0-1.6542969-1.3457031-3-3-3h-2v-4h2c0.5522461,0,1-0.4477539,1-1  v-3h29c0.5522461,0,1-0.4477539,1-1v-6c0-10.4765625-8.5234375-19-19-19h-10.5V8.4394531  c0-2.1889648-1.78125-3.9702148-4.0302734-3.9702148c-2.1889648,0-3.9697266,1.78125-3.9697266,3.9702148v0.0490112  c-6.925415,0.2034302-12.5,5.8873291-12.5,12.861145v0.2397461C5.2719727,28.3944092,10.5805054,33.9690552,17.2719727,34.4246216z   M20.2719727,52.4692383h-2c-0.5512695,0-1-0.4487305-1-1v-6c0-0.5512695,0.4487305-1,1-1h2V52.4692383z M24.2719727,44.4692383  c0.5512695,0,1,0.4487305,1,1v6c0,0.5512695-0.4487305,1-1,1h-2v-8H24.2719727z M23.2719727,36.4692383h-4v-2h4V36.4692383z   M19.7719727,8.4394531c0-1.0864258,0.8837891-1.9702148,2.0297852-1.9702148c1.0864258,0,1.9702148,0.8837891,1.9702148,1.9702148  l-4,0.0297852V8.4394531z M7.2719727,21.3496094c0-5.9995117,4.8808594-10.8803711,10.8798828-10.8803711h0.6201172h6h11.5  c9.3740234,0,17,7.6259766,17,17v5h-29h-6h-0.1201172c-5.9990234,0-10.8798828-4.8808594-10.8798828-10.8798828V21.3496094z"></path><path d="M31.7368164,23.4692383h14.5351562c0.5522461,0,1-0.5175781,1-1.0698242  c0-4.3725586-3.5576172-7.9301758-7.9301758-7.9301758h-7.6049805c-2.4619141,0-4.4648438,2.0029297-4.4648438,4.5351562  C27.2719727,21.4663086,29.2749023,23.4692383,31.7368164,23.4692383z M31.7368164,16.4692383h7.6049805  c2.9536133,0,5.409668,2.1704102,5.8574219,5H31.7368164c-1.3588867,0-2.4648438-1.105957-2.4648438-2.534668  C29.2719727,17.5751953,30.3779297,16.4692383,31.7368164,16.4692383z"></path></svg>