<svg height='100px' width='100px'  fill="#000000" xmlns="http://www.w3.org/2000/svg" data-name="Layer 1" viewBox="0 0 100 100" x="0px" y="0px"><title>cleaning</title><path d="M69.85,17.51a13.44,13.44,0,0,0-9.52,2.62,1.08,1.08,0,0,0-.63.44,28.45,28.45,0,0,0-2.24,1.87c-3.62,3.36-8,3.82-12.53,4.3l-1.46.16s0,0,0,0L28.24,12.18a1,1,0,0,0-1.43,1.49L40.87,27.24c-5.89.94-12.08,3.27-17.29,12.64C13.37,58.25,26.39,70,27.53,71L23.7,75.44a1,1,0,0,0-.24.8,1,1,0,0,0,.41.71L39,88a1,1,0,0,0,.6.2,1.06,1.06,0,0,0,.83-.42l5.36-7.13h.87c2.81,0,9.62-.34,14.32-3.39L66.85,83a1,1,0,0,0,.72.3,1.07,1.07,0,0,0,.74-.31,1,1,0,0,0,0-1.46l-5.67-5.6a10.5,10.5,0,0,0,1.16-1.24c1.08-1.38,1.83-2.31,2.49-3L81.2,86.1a1,1,0,0,0,.72.29,1,1,0,0,0,.71-1.77L67.81,70.3a25.88,25.88,0,0,1,3-1.74c1.59-.83,3.77-2,7.08-3.93A19.82,19.82,0,0,0,87.59,52.1c2.11-8.52-1.29-18.32-5.18-24.63C78.78,21.58,74.44,18.13,69.85,17.51ZM61.4,21.9a11.54,11.54,0,0,1,8.17-2.35c5,.68,8.79,5.27,11.08,9,.14.22.28.46.42.7C77.65,26.8,72.8,25.6,66.41,25.6c-2.48,0-4.13-.52-4.79-1.52A2.7,2.7,0,0,1,61.4,21.9Zm-22,63.78L26,75.94,38.32,61.67a1,1,0,0,0,.25-.71L38,42A1.55,1.55,0,0,1,41,41.71l1.68,9.84a1,1,0,0,0,1.87.4L57.86,32.34a1.31,1.31,0,0,1,2.2,1.42L52.47,46a1,1,0,0,0,1.63,1.25L67.75,32.94a1.26,1.26,0,0,1,1.68-.1,1.26,1.26,0,0,1,.16,1.82L56.67,50.73a1,1,0,0,0,1.46,1.44L72.45,40.33a.84.84,0,0,1,.61-.18.8.8,0,0,1,.55.32.83.83,0,0,1,0,1l-12,13.31a1,1,0,0,0,1.22,1.61l9.47-4.73a1,1,0,0,1,1.23,1.57L59,67.11c-4.33,3.06-7.85,4-10.48,2.69l-.32-.15a1,1,0,0,0-1.31.6,1,1,0,0,0,.58,1.33l.15.07a7.53,7.53,0,0,0,1.84.62ZM83.78,34.86c2,5.2,3.16,11.28,1.81,16.75a17.85,17.85,0,0,1-8.71,11.25c-3.26,1.93-5.42,3-7,3.87-3.61,1.89-4.27,2.24-7.73,6.69s-11.23,5-14.82,5.11L52,72.37c2.46-.24,5.23-1.45,8.29-3.62l.11-.09L74.91,54.71a3.08,3.08,0,0,0-3.62-4.87l-4.56,2.28,8.37-9.24a2.88,2.88,0,0,0,.16-3.64,2.87,2.87,0,0,0-4.12-.5l-6.51,5.38L71.18,36A3.28,3.28,0,0,0,72,33.5a3.32,3.32,0,0,0-5.68-2l-6.81,7.15,2.35-3.8a3.37,3.37,0,0,0-5.65-3.66L44.31,48.67l-1.25-7.29a3.61,3.61,0,0,0-7.17.65l.61,18.6-7.62,8.82c-.8-.66-13.14-11.22-3.5-28.57,5.9-10.62,13-11.37,19.76-12.09,4.72-.5,9.6-1,13.72-4.84l.41-.37a4.17,4.17,0,0,0,.62,1.62c1.06,1.63,3.26,2.46,6.52,2.46,8.48,0,13.93,2.2,16.64,6.72A1,1,0,0,0,83.78,34.86Z"></path><path d="M26.93,26.59a1,1,0,0,0,.77-.34,1,1,0,0,0-.08-1.46L13.49,12.12A1,1,0,0,0,12,12.2a1,1,0,0,0,.08,1.45L26.24,26.33A1.08,1.08,0,0,0,26.93,26.59Z"></path><path d="M23.11,37.28a1,1,0,0,0,.74-1.74l-5.2-5.46a1,1,0,1,0-1.49,1.43L22.36,37A1,1,0,0,0,23.11,37.28Z"></path><path d="M78.08,68.47A1,1,0,0,0,76.73,70l5.49,4.81a1.05,1.05,0,0,0,.68.26,1,1,0,0,0,.78-.36,1,1,0,0,0-.1-1.45Z"></path></svg>