<svg height='100px' width='100px'  fill="#000000" xmlns="http://www.w3.org/2000/svg" xmlns:xlink="http://www.w3.org/1999/xlink" version="1.1" x="0px" y="0px" viewBox="0 0 512 512" style="enable-background:new 0 0 512 512;" xml:space="preserve"><g><path d="M480.2,212c-9.3-5.5-20.7-5.8-32.3-0.8c-10.8,4.7-20.4,13.5-27.3,24.9c-13,21.7-12.1,46.2,1.1,59.3l-19.9,32.2   c-7.2-4.1-15.5-5.2-23.5-3.2c-8.3,2.1-15.2,7.3-19.6,14.6l-1.4,2.3c-0.1-0.3-0.2-0.6-0.3-0.9c0,0,0,0,0,0l-0.1-0.3c0,0,0,0,0,0l0,0   c0,0,0,0,0,0c0,0,0,0,0,0c-0.4-1.2-0.9-2.4-1.4-3.5c0,0,0,0,0,0l-0.1-0.3c0,0,0,0,0,0c-0.1-0.2-0.2-0.4-0.3-0.6   c-0.4-0.9-0.8-1.8-1.3-2.8c0,0,0,0,0,0c0,0,0,0,0,0l-0.2-0.5c0,0,0,0,0,0c-0.5-1.1-1-2.1-1.6-3.2c0,0,0,0,0,0l-0.3-0.6c0,0,0,0,0,0   c-0.6-1.1-1.2-2.2-1.8-3.2c0,0,0,0,0,0c0,0,0,0,0,0l-0.2-0.4c0,0,0,0,0,0l0,0c0,0,0,0,0,0c-0.7-1.2-1.3-2.2-2-3.2c0,0,0,0,0,0   c0,0,0,0,0,0c0,0,0,0,0,0c0,0,0,0,0,0c0,0,0,0,0-0.1c0,0,0,0,0,0c0,0,0,0,0,0c0,0,0,0,0,0c0,0,0,0,0,0c-0.3-0.5-0.7-1-1-1.5   c-0.2-0.3-0.4-0.6-0.6-0.8c-0.2-0.3-0.3-0.5-0.5-0.8c0,0,0,0,0,0c0,0,0,0,0,0c0,0,0,0,0,0l-0.2-0.4c0,0,0,0,0,0c0,0,0,0,0,0   c-0.7-1-1.4-1.9-2.2-2.9c0,0,0,0,0,0l-0.4-0.5c0,0,0,0,0,0c-0.7-0.9-1.5-1.9-2.3-2.8c0,0,0,0,0,0l-0.4-0.5c0,0,0,0,0,0   c-0.8-1-1.6-1.9-2.4-2.8c0,0,0,0,0,0c0,0,0,0,0,0l-0.2-0.2c0,0,0,0,0,0c0,0,0,0,0,0c-0.9-0.9-1.7-1.8-2.5-2.7c0,0,0,0,0,0l-0.2-0.2   c0,0,0,0,0,0c0,0,0,0,0,0l0,0c0,0,0,0,0,0c-0.8-0.8-1.7-1.6-2.7-2.6c0,0,0,0,0,0c0,0,0,0,0,0l-0.4-0.4c0,0,0,0,0,0c0,0,0,0,0,0   c-0.9-0.8-1.8-1.6-2.7-2.4c0,0,0,0,0,0l-0.5-0.4c0,0,0,0,0,0c-0.9-0.8-1.9-1.6-2.8-2.3l-0.4-0.3c0,0,0,0,0,0c0,0,0,0,0,0   c-1.1-0.8-2.1-1.6-3-2.2c0,0,0,0,0,0c0,0,0,0,0,0c0,0-0.1-0.1-0.1-0.1c0,0,0,0,0,0c-1-0.7-2-1.4-3.1-2.1c0,0,0,0,0,0l-0.3-0.2   c0,0,0,0,0,0c0,0,0,0,0,0c-1-0.6-2-1.3-3.1-1.9c0,0,0,0,0,0l-0.5-0.3c0,0,0,0,0,0c0,0,0,0,0,0c-1-0.6-2.1-1.2-3.2-1.8c0,0,0,0,0,0   l-0.6-0.3c0,0,0,0,0,0c-1.1-0.6-2.2-1.1-3.3-1.7c0,0,0,0,0,0l-0.4-0.2c0,0,0,0,0,0c-1.2-0.6-2.3-1.1-3.4-1.5c0,0,0,0,0,0   c0,0-0.1,0-0.1-0.1c0,0,0,0,0,0c0,0,0,0,0,0c0,0,0,0,0,0c0,0,0,0,0,0c0,0,0,0-0.1,0c-1.7-9.3-9.9-16.4-19.7-16.4   c-6.8,0-12.9,3.4-16.6,8.8c-0.5,0-1.1,0-1.6,0c0,0,0,0,0,0s0,0,0,0s0,0,0,0c-0.5,0-1,0-1.5-0.1c0,0,0,0,0,0c0,0,0,0,0,0   c0,0,0,0-0.1,0c-0.4,0-0.8-0.1-1.2-0.2c-0.1,0-0.2,0-0.3,0c-8.8-1.5-15.2-9.1-15.2-18.1v-6.5c18.8-10.9,30.2-30.7,30.2-52.7   c0-0.3,0-0.7-0.1-1l-1.2-8.5l9.2-24.3h0.8c6.7,0,12.2-5.5,12.2-12.2v-11.4c0-2.5-0.1-4.9-0.2-7.3c-0.1-1.4-0.1-2.9-0.2-4.3   c-0.1-1.8,1.1-4.5,2.3-7.1c0.9-1.9,1.7-3.9,2.3-6l2.6-7.5c7.2-19.5,3.5-42.7-9.7-60.6c-11.5-15.6-28-24.3-45.5-24.1   c-32.7-21.8-60.7-19.7-83.8-14.6c-22,4.8-40.5,18.2-52.1,37.8c-11.7,19.8-14.8,43.8-8.3,65.8c2.5,8.5,4.5,16.1,3.9,23.9   c-0.4,4.8-0.3,9.5-0.1,14.1l0,1.5c0.2,6.7,5.5,11.9,12.2,11.9h0.1l7.2,26.8l-0.9,6c0,0.3-0.1,0.7-0.1,1c0,25.8,16.3,48.9,40.6,57.5   c0,0,0,0,0,0c6.6,2.3,13.4,3.5,20.4,3.5h27.4c5.7,0,11.4-0.8,16.8-2.3v0.5c0,15.8,11.3,29.2,26.8,31.9c0.9,0.2,1.8,0.3,2.6,0.3   c0,0,0,0,0,0c0,0,0,0,0,0c0,0,0,0,0,0c0,0,0,0,0,0c0,0,0,0,0,0c0,0,0,0,0,0c0,0,0.1,0,0.2,0c0,0,0,0,0,0c0,0,0,0,0,0c0,0,0,0,0,0   c0,0,0,0,0,0c0.1,0,0.2,0,0.3,0c0.1,0,0.3,0,0.4,0v56.7c0,32-26.1,58.1-58.1,58.1s-58.1-26.1-58.1-58.1v-56.6c0.1,0,0.1,0,0.2,0   c0,0,0,0,0,0c0.3,0,0.6,0,0.8-0.1c0.1,0,0.2,0,0.3,0c14.2,12.8,33.6,19.6,54.6,19.6c8.9,0,18.1-1.2,27.2-3.8c3.7-1,5.9-4.9,4.9-8.6   c-1-3.7-4.9-5.9-8.6-4.9c-18.6,5.1-43.6,5.2-62.8-8c3.2-2.2,6-5,8.2-8.2c2.2-3.2,1.4-7.5-1.8-9.7c-3.2-2.2-7.5-1.4-9.7,1.8   c-2.6,3.8-6.7,6.6-11.2,7.6c-0.3,0.1-0.6,0.1-1,0.2c0,0,0,0,0,0c0,0,0,0,0,0c-0.2,0-0.4,0.1-0.6,0.1c-0.1,0-0.2,0-0.4,0.1   c0,0,0,0,0,0c0,0,0,0-0.1,0c-0.1,0-0.2,0-0.4,0c-0.2,0-0.3,0-0.5,0c0,0,0,0,0,0c0,0-0.1,0-0.2,0c-0.3,0-0.7,0-1,0c0,0,0,0,0,0   c-0.5,0-1,0-1.6,0c-3.7-5.4-9.8-8.8-16.6-8.8c-9.8,0-18,7.1-19.7,16.4c0,0,0,0-0.1,0c0,0,0,0,0,0c0,0,0,0,0,0c0,0,0,0,0,0   c0,0,0,0,0,0c0,0-0.1,0-0.1,0.1c0,0,0,0,0,0c0,0,0,0,0,0c0,0,0,0,0,0c-1.1,0.5-2.2,1-3.4,1.5c0,0,0,0,0,0l-0.4,0.2c0,0,0,0,0,0   c0,0,0,0,0,0l0,0c0,0,0,0,0,0c-1,0.5-2.1,1-3.3,1.6c0,0,0,0,0,0l-0.6,0.3c0,0,0,0,0,0c0,0,0,0,0,0c-1.1,0.6-2.1,1.2-3.2,1.8   c0,0,0,0,0,0l-0.5,0.3c0,0,0,0,0,0c-1.1,0.7-2.2,1.3-3.1,1.9c0,0,0,0,0,0l-0.3,0.2c0,0,0,0,0,0c0,0,0,0,0,0   c-1.1,0.7-2.1,1.4-3.1,2.1c0,0,0,0,0,0c0,0,0,0,0,0c0,0-0.1,0.1-0.1,0.1c0,0,0,0,0,0c0,0,0,0,0,0c-1,0.7-1.9,1.4-3,2.2c0,0,0,0,0,0   l-0.4,0.3c-0.9,0.7-1.9,1.5-2.8,2.3c0,0,0,0,0,0l-0.5,0.4c0,0,0,0,0,0c0,0,0,0,0,0c-0.9,0.8-1.8,1.6-2.7,2.4c0,0,0,0,0,0   c0,0,0,0,0,0l-0.4,0.4c0,0,0,0,0,0c-1,0.9-1.9,1.8-2.7,2.6c0,0,0,0,0,0l0,0c0,0,0,0,0,0c0,0,0,0,0,0l-0.2,0.2c0,0,0,0,0,0   c0,0-0.1,0.1-0.1,0.1c-0.8,0.8-1.6,1.7-2.4,2.6c0,0,0,0,0,0c0,0,0,0,0,0l-0.2,0.2c0,0,0,0,0,0c0,0,0,0,0,0   c-0.4,0.4-0.7,0.8-1.1,1.2c0,0-0.1,0.1-0.1,0.1c-0.4,0.5-0.8,0.9-1.2,1.4c0,0,0,0,0,0c0,0,0,0,0,0l-0.4,0.5c0,0,0,0,0,0   c0,0,0,0,0,0l0,0c0,0,0,0,0,0c-0.8,0.9-1.5,1.9-2.3,2.8c0,0,0,0,0,0c0,0,0,0,0,0l-0.4,0.5c0,0,0,0,0,0c0,0,0,0,0,0   c-0.8,1-1.5,2-2.2,2.9c0,0,0,0,0,0c0,0,0,0,0,0l-0.3,0.4c0,0,0,0,0,0c-0.8,1.1-1.4,2.1-2.1,3.1c0,0,0,0,0,0c0,0,0,0.1-0.1,0.1   c0,0,0,0,0,0c0,0,0,0,0,0c-0.6,1-1.3,2.1-2,3.2c0,0,0,0,0,0l0,0c0,0,0,0,0,0c0,0,0,0,0,0l-0.3,0.4c0,0,0,0,0,0c0,0,0,0,0,0   c-0.6,1-1.2,2.1-1.8,3.2c0,0,0,0,0,0l-0.3,0.6c0,0,0,0,0,0c0,0,0,0,0,0c-0.6,1.1-1.1,2.2-1.6,3.3c0,0,0,0,0,0l-0.2,0.5c0,0,0,0,0,0   c0,0,0,0,0,0c-0.6,1.2-1.1,2.3-1.5,3.4c0,0,0,0,0,0l-0.1,0.3c0,0,0,0,0,0c-0.5,1.1-0.9,2.3-1.4,3.4c0,0,0,0,0,0l-0.1,0.3   c0,0,0,0,0,0c0,0,0,0,0,0c-0.4,1.1-0.8,2.3-1.2,3.6l0,0c0,0,0,0,0,0c0,0,0,0,0,0l0,0.1l-0.2,0.5c0,0,0,0,0,0c0,0,0,0,0,0   c-0.4,1.1-0.7,2.3-1,3.5c0,0,0,0,0,0l-0.2,0.7c0,0,0,0,0,0c-0.3,1.3-0.6,2.5-0.9,3.7c0,0,0,0,0,0c0,0,0,0,0,0l-0.1,0.5c0,0,0,0,0,0   c-0.1,0.5-0.2,0.9-0.3,1.4c-0.1,0.4-0.2,0.9-0.3,1.3c-0.1,0.4-0.2,0.8-0.2,1.2c0,0,0,0,0,0c0,0,0,0,0,0c0,0,0,0,0,0   c-3.7,20.8-7.9,43.2-13.2,65.4l-3.5,14.7c-1.6,6.8-0.1,13.9,4.3,19.4c2.8,3.6,6.6,6.2,10.8,7.6C48,475,48,486.2,48,497v1   c0,3.9,3.1,7,7,7c8.2,0,16.5,0,24.7,0c0,0,0,0,0,0c3.9,0,7-3.1,7-7c0-3.9-3.1-7-7-7c-5.9,0-11.9,0-17.8,0c0-8.6,0-17.3,0.1-25.9   h45.3v33c0,3.9,3.1,7,7,7h182.3c3.9,0,7-3.1,7-7v-33h30.4l-7.7,31.3c-0.9,3.8,1.4,7.5,5.1,8.5c0.6,0.1,1.1,0.2,1.7,0.2   c3.1,0,6-2.1,6.8-5.3l9.8-40l11.6-47.1l6.3,3.7c4.9,2.9,10.3,4.4,15.7,4.4c1.9,0,3.9-0.2,5.8-0.6c0,1.2,0,2.5,0,3.7   c-0.2,22.1-0.5,45-1.8,67.1c-5.8,0-11.6,0-17.2,0c-3.9,0-7,3.2-7,7c0,3.9,3.1,7,7,7c0,0,0,0,0,0c7.7,0,15.7,0,23.7,0c0,0,0,0,0,0   c3.7,0,6.7-2.8,7-6.5c1.7-24.5,2-49.9,2.2-74.4c0-3.6,0.1-7.1,0.1-10.6c2.5-2.2,4.7-4.7,6.5-7.6l16.6-27.8   c8.7-14.5,3.9-33.4-10.6-42l-2-1.2l19.8-32c3.2,1.1,6.6,1.6,10,1.6c5.2,0,10.7-1.2,16.2-3.6c10.8-4.7,20.4-13.5,27.3-24.9   C501.6,251.6,498.5,223,480.2,212z M237.2,241.4C237.2,241.4,237.2,241.4,237.2,241.4c-6.5,3.2-13.4,4.8-20.7,4.8H189   c-5.4,0-10.7-0.9-15.7-2.7c0,0,0,0,0,0c-18.6-6.6-31.1-24.2-31.3-43.8l1-6.9c0,0,0,0,0-0.1l4-27.4c26.8-0.3,55.3-0.3,84.9,0   c0,0,0,0,0.1,0c3.8,0,7-3.1,7-6.9c0-3.9-3.1-7-6.9-7.1c-31.8-0.3-62.5-0.2-91.1,0.1h-17.5c-0.1-4.3-0.2-8.4,0.1-12.4   c0.8-10.2-1.6-19.5-4.4-29c-5.4-18.4-2.8-38.3,6.9-54.7C135.7,39,151,27.9,169.2,24c20.9-4.6,44-6.2,71.7,11.8v10.6   c0,3.9,3.1,7,7,7s7-3.1,7-7v-7.1c11.2,1.3,21.6,7.7,29.3,18.1c10.4,14.1,13.4,32.3,7.8,47.4c0,0.1,0,0.1-0.1,0.2l-2.7,7.7   c0,0.1-0.1,0.2-0.1,0.4c-0.3,1.2-1,2.7-1.7,4.4c-1.7,3.8-3.6,8.2-3.5,13.2c0,1.5,0.1,3.1,0.2,4.6c0.1,2.3,0.2,4.4,0.2,6.6v9.6   h-19.8c0,0-0.1,0-0.1,0c-0.1,0-0.3,0-0.4,0c-0.1,0-0.2,0-0.4,0c0,0-0.1,0-0.1,0c-0.1,0-0.1,0-0.2,0c-0.1,0-0.3,0-0.4,0.1   c-0.1,0-0.2,0-0.3,0.1c-0.1,0-0.3,0.1-0.4,0.1c-0.1,0-0.2,0.1-0.3,0.1c-0.1,0-0.2,0.1-0.3,0.1c-0.1,0-0.2,0.1-0.3,0.1   c-0.1,0.1-0.2,0.1-0.3,0.2c-0.1,0.1-0.2,0.1-0.3,0.2c-0.1,0.1-0.2,0.1-0.3,0.2c-0.1,0.1-0.2,0.1-0.3,0.2c-0.1,0.1-0.2,0.1-0.2,0.2   c-0.1,0.1-0.2,0.2-0.3,0.2c-0.1,0.1-0.2,0.2-0.2,0.2c-0.1,0.1-0.2,0.2-0.2,0.2c-0.1,0.1-0.2,0.2-0.2,0.3c-0.1,0.1-0.1,0.2-0.2,0.2   c-0.1,0.1-0.1,0.2-0.2,0.3c-0.1,0.1-0.1,0.2-0.2,0.3c-0.1,0.1-0.1,0.2-0.2,0.3c0,0.1-0.1,0.2-0.1,0.3c-0.1,0.1-0.1,0.2-0.1,0.3   c0,0.1-0.1,0.2-0.1,0.3c0,0.1-0.1,0.2-0.1,0.3c0,0.1-0.1,0.2-0.1,0.3c0,0.1,0,0.2-0.1,0.3c0,0.1,0,0.3-0.1,0.4c0,0.1,0,0.2,0,0.3   c0,0.1,0,0.3,0,0.4c0,0.1,0,0.1,0,0.2c0,0,0,0.1,0,0.1c0,0.1,0,0.2,0,0.4c0,0.1,0,0.3,0,0.4c0,0,0,0.1,0,0.1l4.4,30.4c0,0,0,0,0,0   l1.4,9.9C263.3,217.5,253.2,233.5,237.2,241.4z M107.4,451.1h-52c0,0,0,0-0.1,0c0,0,0,0,0,0c0,0,0,0,0,0c0,0,0,0-0.1,0c0,0,0,0,0,0   c-2.7,0-5.2-1.3-6.9-3.4c-1.7-2.1-2.3-4.9-1.7-7.5l3.5-14.7c5.4-22.5,9.6-45.1,13.3-66.2c0,0,0,0,0,0c0-0.2,0.1-0.5,0.1-0.7   c0.2-0.8,0.3-1.7,0.5-2.7c0,0,0,0,0,0l0.1-0.4c0.2-1,0.5-2,0.8-3.1c0,0,0,0,0,0l0.1-0.5c0,0,0,0,0,0c0,0,0,0,0,0c0.3-1,0.6-2,0.9-3   c0,0,0,0,0,0l0.1-0.3l0.1-0.2c0,0,0,0,0,0c0.4-1.1,0.7-2.1,1-3l0.1-0.3c0,0,0,0,0,0c0,0,0,0,0,0c0.4-1,0.8-2,1.2-3c0,0,0,0,0,0   c0,0,0,0,0,0l0.1-0.2c0.4-0.9,0.8-1.9,1.3-2.9c0,0,0,0,0,0l0.2-0.5c0,0,0,0,0,0c0.4-0.9,0.9-1.9,1.4-2.8c0,0,0,0,0,0l0.3-0.5   c0,0,0,0,0,0c0.5-0.9,1-1.8,1.5-2.7l0.2-0.4c0,0,0,0,0,0c0,0,0,0,0,0c0.6-1,1.2-1.9,1.7-2.8c0,0,0,0,0,0c0,0,0,0,0,0c0,0,0,0,0,0   c0.5-0.9,1.1-1.7,1.8-2.7c0,0,0,0,0,0c0,0,0,0,0,0l0.2-0.3c0,0,0,0,0,0c0.6-0.9,1.2-1.7,1.9-2.5c0,0,0,0,0,0l0.3-0.4c0,0,0,0,0,0   c0.6-0.8,1.3-1.6,1.9-2.4c0,0,0,0,0,0c0,0,0,0,0,0l0.3-0.4c0.7-0.8,1.4-1.6,2.1-2.4l0.2-0.3c0,0,0,0,0,0c0.7-0.8,1.5-1.6,2.2-2.3   c0,0,0,0,0.1-0.1c0,0,0,0,0,0c0,0,0,0,0,0c0,0,0,0,0,0c0.8-0.8,1.5-1.5,2.3-2.2c0,0,0,0,0,0l0.4-0.3c0,0,0,0,0,0   c0.8-0.7,1.5-1.4,2.3-2c0,0,0,0,0,0l0.4-0.4c0,0,0,0,0,0c0.8-0.7,1.6-1.3,2.4-1.9l0.4-0.3c0,0,0,0,0,0c0.8-0.6,1.7-1.3,2.6-1.9   l0.2-0.1c0,0,0,0,0,0c0.9-0.6,1.8-1.2,2.6-1.8c0,0,0,0,0,0l0.3-0.2c0,0,0,0,0,0c0.9-0.6,1.8-1.1,2.7-1.7c0,0,0,0,0,0l0.5-0.3   c0,0,0,0,0,0c0.9-0.5,1.8-1,2.7-1.5c0,0,0,0,0,0l0.5-0.3c0,0,0,0,0,0c0,0,0,0,0,0c0.2-0.1,0.4-0.2,0.5-0.3V451.1z M289.8,289.2   L289.8,289.2v168.9v33H121.4v-33V289.7c0-0.3,0-0.7,0-1v-0.8c0-3.3,2.7-6,6-6c2.6,0,4.9,1.7,5.7,4.1c0,0,0,0,0,0   c0.2,0.6,0.3,1.2,0.3,1.9v59.3c0,39.8,32.3,72.1,72.1,72.1s72.1-32.3,72.1-72.1v-59.3c0-0.6,0.1-1.3,0.3-1.9c0,0,0,0,0,0   c0.8-2.5,3.1-4.2,5.7-4.2c3.3,0,6,2.7,6,6V289.2z M348.9,405l-11.3,46h-33.9V299.9c0.2,0.1,0.4,0.2,0.5,0.3c0,0,0,0,0,0   c0,0,0,0,0,0l0.5,0.3c0,0,0,0,0,0c0.9,0.5,1.8,1,2.7,1.5c0,0,0,0,0,0l0.5,0.3c0,0,0,0,0,0c0.9,0.5,1.8,1.1,2.7,1.7l0.3,0.2   c0,0,0,0,0,0c0,0,0,0,0,0c0.9,0.6,1.8,1.2,2.7,1.8c0,0,0,0,0,0l0.2,0.1c0.8,0.6,1.6,1.2,2.6,1.9c0,0,0,0,0,0l0.4,0.3   c0.8,0.6,1.6,1.3,2.4,1.9c0,0,0,0,0,0l0.4,0.4c0,0,0,0,0,0c0.8,0.7,1.6,1.3,2.3,2c0,0,0,0,0,0l0.4,0.3c0,0,0,0,0,0   c0.8,0.7,1.6,1.5,2.3,2.2c0,0,0,0,0,0c0,0,0.1,0.1,0.1,0.1c0,0,0,0,0,0c0,0,0,0,0,0c0.8,0.8,1.5,1.5,2.2,2.3c0,0,0,0,0,0l0.2,0.3   c0.7,0.8,1.4,1.6,2.1,2.4c0,0,0,0,0,0c0,0,0,0,0,0l0.3,0.4c0,0,0,0,0,0c0,0,0,0,0,0c0.7,0.8,1.3,1.6,1.9,2.4c0,0,0,0,0,0l0.3,0.4   c0,0,0,0,0,0c0,0,0,0,0,0c0.6,0.8,1.3,1.7,1.9,2.5l0.2,0.3c0,0,0,0,0,0c0.3,0.5,0.6,0.9,0.9,1.4c0.3,0.4,0.6,0.9,0.9,1.3   c0,0,0,0,0,0c0,0,0,0,0,0.1c0,0,0,0,0,0c0.5,0.8,1.1,1.8,1.7,2.8c0,0,0,0,0,0l0.2,0.4c0.5,0.9,1,1.8,1.5,2.7c0,0,0,0,0,0   c0,0,0,0,0,0l0.3,0.5c0,0,0,0,0,0c0,0,0,0,0,0c0.5,0.9,0.9,1.8,1.4,2.8c0,0,0,0,0,0l0.1,0.2l0.1,0.3c0,0,0,0,0,0c0,0,0,0,0,0   c0.5,1.1,0.9,2,1.3,3c0,0,0,0,0,0c0,0,0,0,0,0l0.1,0.2c0,0,0,0,0,0c0,0,0,0,0,0c0.4,1,0.8,2,1.2,3c0,0,0,0,0,0l0.1,0.2c0,0,0,0,0,0   c0,0,0,0,0,0c0.3,0.9,0.7,1.9,1.1,3.1c0,0,0,0,0,0l0.2,0.5c0,0,0,0,0,0c0.3,1,0.6,2,0.9,3c0,0,0,0,0,0c0,0,0,0,0,0l0.1,0.5   c0,0,0,0,0,0c0.3,1.1,0.5,2.1,0.8,3.1c0,0,0,0,0,0c0,0,0,0,0,0l0.1,0.4c0,0,0,0,0,0c0,0.2,0.1,0.4,0.1,0.6c0.1,0.4,0.2,0.7,0.2,1.1   c0,0.1,0,0.2,0.1,0.3l-4,6.7c-7.8,13.1-5.3,29.5,5.6,39.7V405z M414.4,370.8l-16.6,27.8c-1.3,2.2-3.1,4-5.2,5.4c0,0,0,0,0,0   c-5.4,3.5-12.1,3.6-17.6,0.3l-7.6-4.6l-5.8-3.4c-0.3-0.1-0.5-0.3-0.7-0.5c0,0,0,0,0,0c-0.3-0.2-0.5-0.3-0.7-0.5   c-7.4-5.5-9.5-15.6-4.7-23.6l5.3-8.9c0,0,0,0,0,0c0,0,0,0,0,0l0,0c0,0,0,0,0,0c0,0,0,0,0,0l10-16.6c2.5-4.1,6.4-7,11-8.2   c4.6-1.2,9.5-0.5,13.6,2l5.3,3.2c0,0,0,0,0,0l8.1,4.8C416.5,352.7,419.1,363,414.4,370.8z M475.1,268.7   c-5.3,8.9-12.7,15.7-20.8,19.3c-7.2,3.1-14.1,3.2-19.4,0.1c-0.1,0-0.1-0.1-0.2-0.1c0,0,0,0,0,0c0,0,0,0,0,0c0,0,0,0,0,0   c-11.3-7-12.2-27.4-1.9-44.6c5.3-8.9,12.7-15.7,20.8-19.3c7.3-3.2,14.2-3.2,19.5,0C484.5,230.9,485.5,251.4,475.1,268.7z"></path></g></svg>