<svg height='100px' width='100px'  fill="#000000" xmlns:dc="http://purl.org/dc/elements/1.1/" xmlns:cc="http://creativecommons.org/ns#" xmlns:rdf="http://www.w3.org/1999/02/22-rdf-syntax-ns#" xmlns:svg="http://www.w3.org/2000/svg" xmlns="http://www.w3.org/2000/svg" xmlns:sodipodi="http://sodipodi.sourceforge.net/DTD/sodipodi-0.dtd" xmlns:inkscape="http://www.inkscape.org/namespaces/inkscape" version="1.1" x="0px" y="0px" viewBox="0 0 100 100"><g transform="translate(0,-952.36218)"><path d="m 7.0106172,962.36221 c -1.1046,0 -2,0.89543 -2,2 0,1.10457 0.8954,2 2,2 l 12.6561998,0 c 5.1117,12.63923 10.1269,25.30363 15.1876,37.96879 l -4.6876,11.25 c -0.5137,1.2111 0.5282,2.7829 1.8438,2.7813 l 50,0 c 1.0566,0.015 2.0285,-0.9434 2.0285,-2 0,-1.0568 -0.9719,-2.015 -2.0285,-2 l -47,0 3.375,-8.125 48.7812,-3.9063 c 0.834,-0.069 1.5879,-0.717 1.7813,-1.5312 l 6,-26.00009 c 0.2601,-1.16072 -0.748,-2.429 -1.9375,-2.4375 l -66.6562,0 -3.5,-8.75 c -0.2954,-0.73003 -1.0563,-1.24591 -1.8438,-1.25 z m 20.9374998,14 21.0625,0 0,11 -16.6562,0 z m 25.0625,0 14,0 0,11 -14,0 z m 18,0 19.5,0 -2.5625,11 -16.9375,0 z m -37.0625,15 15.0625,0 0,10.03129 -10.6875,0.8438 z m 19.0625,0 14,0 0,8.59374 -14,1.12505 z m 18,0 16.0312,0 -1.6562,7.12504 -14.375,1.1562 z m -28,32.99999 c -4.9468,0 -9,4.0531 -9,9 0,4.9468 4.0532,9 9,9 4.9469,0 9,-4.0533 9,-9 0,-4.9469 -4.0531,-9 -9,-9 z m 28,0 c -4.9469,0 -9,4.0531 -9,9 0,4.9467 4.0531,9 9,9 4.9468,0 9,-4.0532 9,-9 0,-4.9469 -4.0532,-9 -9,-9 z m -28,4 c 2.7851,0 5,2.2147 5,5 0,2.7851 -2.2149,5 -5,5 -2.785,0 -5,-2.215 -5,-5 0,-2.7852 2.215,-5 5,-5 z m 28,0 c 2.785,0 5,2.2148 5,5 0,2.785 -2.215,5 -5,5 -2.7851,0 -5,-2.2149 -5,-5 0,-2.7853 2.2149,-5 5,-5 z" style="text-indent:0;text-transform:none;direction:ltr;block-progression:tb;baseline-shift:baseline;color:#000000;enable-background:accumulate;" fill="#000000" fill-opacity="1" stroke="none" marker="none" visibility="visible" display="inline" overflow="visible"></path></g></svg>