<svg height='100px' width='100px'  fill="#000000" xmlns="http://www.w3.org/2000/svg" xmlns:xlink="http://www.w3.org/1999/xlink" xml:space="preserve" version="1.1" style="shape-rendering:geometricPrecision;text-rendering:geometricPrecision;image-rendering:optimizeQuality;" viewBox="0 0 333 333" x="0px" y="0px" fill-rule="evenodd" clip-rule="evenodd"><defs><style type="text/css">
   
    .fil1 {fill:#000000}
    .fil0 {fill:#000000}
   
  </style></defs><g><path class="fil0" d="M184 171c-2,1 -1,0 -2,1 -1,0 -1,0 -1,0 0,1 0,1 0,1l-1 1c-3,0 -4,1 -7,1l-15 5c-1,1 -1,1 -3,1 0,-4 0,-8 -1,-11 -1,0 -2,0 -3,2l-2 2c0,0 0,1 -1,1l-5 5c-1,0 -1,0 -1,0 0,0 0,0 0,0l-2 2c0,0 0,0 0,0l-4 3c0,0 -1,0 -1,1 0,0 0,0 0,0l-1 1c0,0 0,0 0,0l-1 3c3,0 6,0 8,-2 1,-1 1,-2 3,-2 1,-1 1,-1 2,-1 2,-1 5,-2 7,-3 2,0 3,0 4,0l19 -5c1,-1 2,0 3,-1 2,0 0,-1 3,-1 1,-2 0,-2 3,-2 0,-3 0,-2 1,-4l3 -6c1,-2 0,-3 2,-5 1,-1 0,0 0,-1l2 -2c0,0 0,-1 0,-1l8 -10c-2,-1 -2,-1 -4,1 0,0 0,0 0,0l-1 2c-1,1 -2,3 -3,5l-6 11c0,0 0,0 0,0l-3 6c0,1 0,1 0,2z"></path><path class="fil1" d="M188 51c-23,0 -21,17 -5,17 -8,6 4,11 10,10 -5,8 1,10 9,10 -1,3 8,22 -2,38 -12,-3 -38,-27 -60,-23 -7,3 -42,53 -43,62 13,9 27,21 30,32 -9,-6 -29,-15 -40,-14 -6,3 -69,110 -61,125 13,8 104,-45 106,-49 3,-7 -7,-20 -10,-27 13,7 16,17 22,19 8,2 46,-23 49,-33 -2,-11 -5,-16 -11,-24 14,0 18,12 24,17 2,2 23,-10 25,-22 -1,-37 -18,-44 -24,-55 24,-12 31,10 39,-3 0,8 1,15 10,9 -2,7 2,19 10,10 3,17 16,18 16,-3 6,13 22,27 22,-6 9,2 2,-5 -1,-10 10,7 3,-12 -9,-13 10,-4 -13,-13 -22,-12 8,-6 -11,-6 -17,-3 2,-5 -9,-2 -23,5 16,-17 43,-11 38,-25 12,1 30,-5 16,-15 13,0 19,-13 11,-15 10,-12 -7,-27 -17,-14 -1,-8 -14,-9 -14,9 -10,-6 -14,6 -12,14 -3,0 -7,-3 -11,5 -2,5 -11,31 -18,35 2,-2 12,-24 6,-24 0,-2 0,-2 1,-4 1,-4 3,-18 -4,-13 0,-4 -5,-29 -13,-21 1,-10 -18,-20 -13,-9 -3,-6 -10,-10 -10,-2 -21,0 -19,15 -4,22z"></path></g></svg>