<svg height='100px' width='100px'  fill="#000000" xmlns="http://www.w3.org/2000/svg" xmlns:xlink="http://www.w3.org/1999/xlink" version="1.1" x="0px" y="0px" viewBox="0 0 32 32" enable-background="new 0 0 32 32" xml:space="preserve"><circle cx="7.793" cy="25.068" r="0.562"></circle><path d="M27.875,11.967h-0.39c-0.839-4.958-5.516-8.679-11.11-8.84V1.952h1.97c0.207,0,0.375-0.168,0.375-0.375  s-0.168-0.375-0.375-0.375h-4.69c-0.207,0-0.375,0.168-0.375,0.375s0.168,0.375,0.375,0.375h1.971v1.176  c-5.594,0.161-10.271,3.881-11.11,8.84h-0.39c-0.68,0-1.232,0.553-1.232,1.232c0,0.679,0.553,1.232,1.232,1.232h0.777l1.513,1.366  c0.14,0.126,0.319,0.195,0.507,0.195h3.399c-0.071,0.353-0.051,0.805-0.009,1.394c0.028,0.399,0.062,0.863,0.069,1.383  c0.015,0.979-0.462,1.505-0.883,1.97c-0.229,0.252-0.445,0.491-0.563,0.778c-0.123,0.299-0.205,0.826-0.248,1.563  c-0.73-0.396-1.702-0.3-2.306,0.303l-0.274,0.275c-0.364,0.364-0.565,0.849-0.565,1.364c0,0.516,0.201,1,0.565,1.365l3.847,3.846  c0.364,0.364,0.849,0.565,1.364,0.565s1-0.201,1.364-0.565l0.274-0.275c0.364-0.364,0.565-0.849,0.565-1.364  c0-0.48-0.181-0.93-0.499-1.284c0.814-0.64,2.262-1.682,3.256-1.858c1.702-0.3,2.615-2.037,3.348-3.868  c0.326-0.817,0.339-1.642,0.351-2.438c0.011-0.69,0.021-1.403,0.234-2.128c0.109-0.371,0.081-0.726-0.05-1.026h4.916  c0.186,0,0.365-0.069,0.506-0.195l1.513-1.366h0.777c0.68,0,1.232-0.553,1.232-1.232C29.107,12.52,28.555,11.967,27.875,11.967z   M16,3.861c5.347,0,9.867,3.458,10.723,8.106H5.277C6.134,7.319,10.654,3.861,16,3.861z M15.761,18.043  c-0.222,0.582-0.338,1.043-0.44,1.451c-0.204,0.813-0.316,1.261-1.083,1.872c-0.017,0.014-0.026,0.032-0.04,0.048  c-0.403,0.018-0.713-0.039-0.866-0.188c-0.144-0.142-0.178-0.396-0.102-0.755c0.227-1.054,0.069-3.248-0.701-4.425  c-0.013-0.02-0.026-0.034-0.04-0.052h4.945C16.866,16.362,16.161,16.994,15.761,18.043z M17.274,17.084  c-0.138,0.437-0.243,0.978-0.284,1.656c-0.091,1.475-0.456,2.086-1.538,2.437c0.335-0.477,0.458-0.951,0.596-1.5  c0.098-0.388,0.208-0.826,0.413-1.367C16.662,17.784,16.964,17.388,17.274,17.084z M12.428,29.428l-0.274,0.275  c-0.445,0.445-1.223,0.445-1.668,0l-3.847-3.846c-0.223-0.223-0.346-0.519-0.346-0.834c0-0.315,0.123-0.611,0.346-0.833l0.274-0.275  c0.223-0.223,0.519-0.345,0.834-0.345c0.314,0,0.611,0.123,0.834,0.345l3.847,3.846c0.223,0.223,0.346,0.519,0.346,0.834  C12.773,28.91,12.65,29.206,12.428,29.428z M19.494,16.807c-0.242,0.823-0.254,1.588-0.266,2.328  c-0.011,0.762-0.022,1.482-0.298,2.171c-0.651,1.63-1.439,3.171-2.781,3.408c-1.156,0.204-2.692,1.296-3.65,2.057l-3.082-3.082  c0.023-0.921,0.1-1.61,0.213-1.888c0.068-0.165,0.233-0.348,0.425-0.56c0.463-0.511,1.097-1.21,1.077-2.483  c-0.008-0.536-0.042-1.014-0.071-1.426c-0.037-0.518-0.087-1.226,0.026-1.326c0.001,0,0.058-0.037,0.286,0.01  c0.185,0.038,0.362,0.186,0.528,0.439c0.593,0.907,0.811,2.853,0.596,3.858c-0.135,0.627-0.03,1.114,0.31,1.447  c0.453,0.444,1.264,0.533,2.409,0.263c1.74-0.41,2.4-1.257,2.522-3.237c0.105-1.707,0.65-2.522,1.126-2.716  c0.196-0.079,0.381-0.057,0.511,0.061C19.532,16.273,19.577,16.526,19.494,16.807z M25.079,15.243L6.918,15.241l-0.896-0.81h19.956  L25.079,15.243z M27.875,13.682H4.125c-0.266,0-0.482-0.216-0.482-0.482c0-0.266,0.217-0.482,0.482-0.482h23.75  c0.266,0,0.482,0.216,0.482,0.482C28.357,13.465,28.141,13.682,27.875,13.682z"></path><path d="M13.052,4.795C12.919,4.83,9.783,5.7,7.073,9.172C6.945,9.336,6.975,9.571,7.138,9.699c0.068,0.054,0.15,0.08,0.23,0.08  c0.112,0,0.222-0.049,0.296-0.144c2.547-3.264,5.552-4.107,5.582-4.115c0.199-0.054,0.317-0.259,0.264-0.459  C13.456,4.86,13.252,4.74,13.052,4.795z"></path></svg>