<svg height='100px' width='100px'  fill="#000000" xmlns:dc="http://purl.org/dc/elements/1.1/" xmlns:cc="http://creativecommons.org/ns#" xmlns:rdf="http://www.w3.org/1999/02/22-rdf-syntax-ns#" xmlns:svg="http://www.w3.org/2000/svg" xmlns="http://www.w3.org/2000/svg" version="1.1" viewBox="0 0 8.4666665 8.4666669" x="0px" y="0px"><g style="" display="inline"><path d="m 1.2714844,2.0664062 a 0.08599819,0.08599819 0 0 0 -0.00391,0.00195 0.08599819,0.08599819 0 0 0 -0.039063,0.017578 0.08599819,0.08599819 0 0 0 -0.015625,0.015625 c -0.00103,0.00113 -0.00326,0.00111 -0.00391,0.00195 a 0.08599819,0.08599819 0 0 0 -0.00586,0.011719 c -0.00265,0.00462 -0.00599,0.00965 -0.00781,0.013672 -0.00668,0.014733 -0.011051,0.028907 -0.015625,0.044922 -0.00915,0.03203 -0.017791,0.073431 -0.027344,0.1210938 -0.019106,0.095326 -0.040108,0.2177429 -0.060547,0.3398437 -0.00677,0.040467 -0.012969,0.070403 -0.019531,0.109375 C 1.0601046,2.6938564 1.0496877,2.6517915 1.0371094,2.5996094 1.007867,2.4782949 0.97900409,2.3587408 0.95703125,2.2714844 0.94604483,2.2278561 0.93673583,2.1927151 0.9296875,2.1679688 c -0.002514,-0.00883 -0.005435,-0.016357 -0.007813,-0.023438 -9.5507e-4,-0.00284 -8.1763e-4,-0.00677 -0.001953,-0.00977 -9.9041e-4,-0.00261 -0.001986,-0.00377 -0.003906,-0.00781 A 0.08599819,0.08599819 0 0 0 0.9023436,2.1054668 c -3.306e-5,-3.78e-5 -0.00276,-0.00295 -0.005859,-0.00586 A 0.08599819,0.08599819 0 0 0 0.890625,2.09375 0.08599819,0.08599819 0 0 0 0.875,2.0839844 0.08599819,0.08599819 0 0 0 0.869141,2.0820344 c -5.5624e-4,-2.859e-4 -0.001475,2.458e-4 -0.001953,0 a 0.08599819,0.08599819 0 0 0 -0.005859,-0.00391 c -2.13e-6,-6e-7 -0.001799,1.1e-6 -0.001953,0 a 0.08599819,0.08599819 0 0 0 -0.0429687,0 c -5.8522e-4,-9e-7 -0.003903,-1.1e-6 -0.003906,0 -4.37e-6,1.3e-6 -0.003287,0.00157 -0.003906,0.00195 a 0.08599819,0.08599819 0 0 0 -0.0351563,0.023437 0.08599819,0.08599819 0 0 0 -0.009766,0.013672 0.08599819,0.08599819 0 0 0 -0.003906,0.00781 c -2.5163e-4,3.839e-4 -0.00195,0.00195 -0.001953,0.00195 -1.02e-5,2.26e-5 -0.001317,0.0021 -0.001953,0.00391 a 0.08599819,0.08599819 0 0 0 -0.003906,0.019531 c -4.5333e-4,0.00271 -0.001943,0.00573 -0.001953,0.00586 a 0.08599819,0.08599819 0 0 0 0,0.00781 C 0.7381663,2.308804 0.7289327,2.4336152 0.7226582,2.5449138 0.7162552,2.6584845 0.7132672,2.7587407 0.7109394,2.8496013 c -0.002327,0.090861 -0.003898,0.173752 -0.003906,0.2539062 -8.16e-6,0.080153 0.001418,0.1567103 0.001953,0.2382813 a 0.08599819,0.08599819 0 0 0 0,0.00195 c 0.002954,0.1138026 0.0473078,0.2118169 0.12109374,0.28125 0.0568206,0.053468 0.13701443,0.08153 0.21679686,0.109375 L 1.0332031,4.25 1.0175781,4.8183594 1.0039062,5.3867188 0.98828125,5.9550781 c -0.003089,0.11921 0.0106551,0.2216423 0.0566407,0.3046875 0.045987,0.083045 0.1378489,0.140625 0.2382812,0.140625 0.1004325,0 0.1903422,-0.057579 0.2363281,-0.140625 0.045985,-0.083045 0.059729,-0.185478 0.056641,-0.3046875 L 1.5605469,5.3867188 1.546875,4.8183594 1.53125,4.25 1.5195312,3.734375 C 1.5986093,3.7065942 1.677962,3.6780851 1.734375,3.625 1.8081608,3.5555673 1.8525158,3.4575535 1.8554688,3.34375 a 0.08599819,0.08599819 0 0 0 0,-0.00195 c 5.355e-4,-0.081571 0.00196,-0.1581253 0.00195,-0.2382813 -8.5e-6,-0.080154 -0.00158,-0.1630472 -0.00391,-0.2539062 -0.00233,-0.090856 -0.00532,-0.1911168 -0.011719,-0.3046875 -0.00618,-0.1095901 -0.015787,-0.2330556 -0.027344,-0.375 a 0.08599819,0.08599819 0 0 0 0,-0.013672 0.08599819,0.08599819 0 0 0 -0.013672,-0.041016 0.08599819,0.08599819 0 0 0 -0.00391,-0.00586 0.08599819,0.08599819 0 0 0 -0.00586,-0.00586 0.08599819,0.08599819 0 0 0 0,-0.00195 0.08599819,0.08599819 0 0 0 -0.013672,-0.00977 0.08599819,0.08599819 0 0 0 -0.00586,-0.00391 0.08599819,0.08599819 0 0 0 -0.017578,-0.00781 0.08599819,0.08599819 0 0 0 -0.050781,0 0.08599819,0.08599819 0 0 0 -0.042969,0.027344 c -0.008,0.00881 -0.012135,0.017209 -0.015625,0.023437 -0.00806,0.014378 -0.014109,0.026037 -0.019531,0.041016 -0.010845,0.029958 -0.021076,0.067978 -0.033203,0.1132812 -0.024254,0.090607 -0.053188,0.2086944 -0.080078,0.328125 -0.00845,0.037513 -0.015327,0.066861 -0.023438,0.1035157 -0.00497,-0.029648 -0.0086,-0.051712 -0.013672,-0.082031 -0.020438,-0.122101 -0.041441,-0.2445172 -0.060547,-0.3398437 -0.00955,-0.047663 -0.018196,-0.089064 -0.027344,-0.1210938 -0.00457,-0.016015 -0.00894,-0.030189 -0.015625,-0.044922 -0.00316,-0.00696 -0.0085,-0.013797 -0.015625,-0.023437 a 0.08599819,0.08599819 0 0 0 -0.017578,-0.019531 c -1.183e-4,-9.17e-5 -0.00417,-0.00314 -0.00586,-0.00391 a 0.08599819,0.08599819 0 0 0 -0.035156,-0.013672 0.08599819,0.08599819 0 0 0 -0.00586,-0.00195 0.08599819,0.08599819 0 0 0 -0.00195,0 0.08599819,0.08599819 0 0 0 -0.00586,0 0.08599819,0.08599819 0 0 0 -0.00391,0 0.08599819,0.08599819 0 0 0 -0.00781,0 z m 0.00977,0.4726563 c 0.00756,0.043957 0.015837,0.079595 0.023437,0.125 0.0204,0.1218712 0.039403,0.2416009 0.056641,0.3320313 0.00862,0.045215 0.017599,0.08255 0.025391,0.1113281 0.0039,0.014389 0.00623,0.025369 0.013672,0.041016 0.00186,0.00391 0.00432,0.00832 0.00781,0.013672 0.00174,0.00268 0.0031,0.00642 0.00586,0.00977 0.00276,0.00335 0.011424,0.011463 0.011719,0.011719 2.95e-4,2.558e-4 0.019247,0.01158 0.019531,0.011719 2.843e-4,1.385e-4 0.030977,0.00975 0.03125,0.00977 2.734e-4,1.94e-5 0.0388,-0.00576 0.039063,-0.00586 2.625e-4,-1.017e-4 0.027092,-0.017354 0.027344,-0.017578 1.177e-4,-1.052e-4 0.015487,-0.01736 0.015625,-0.017578 1.384e-4,-2.185e-4 0.00274,-0.00734 0.00391,-0.00977 0.00234,-0.00485 0.00486,-0.00896 0.00586,-0.011719 0.00201,-0.00553 0.0025,-0.00876 0.00391,-0.013672 0.00281,-0.00983 0.00633,-0.020977 0.00977,-0.035156 0.00688,-0.028358 0.01526,-0.067737 0.025391,-0.1132812 0.018804,-0.084541 0.041765,-0.1946924 0.066406,-0.3046876 0.00266,0.060166 0.00645,0.1247212 0.00781,0.1777344 0.00228,0.089113 0.0039,0.1708683 0.00391,0.25 9.8e-6,0.07848 -0.00142,0.1552279 -0.00195,0.2363282 C 1.6816344,3.4151857 1.6605254,3.4592187 1.6171874,3.5 1.5738494,3.540782 1.5023602,3.576333 1.408203,3.6015625 a 0.08599819,0.08599819 0 0 0 -0.0625,0.083984 L 1.359375,4.2539062 1.375,4.8222656 1.3886719,5.390625 1.4042969,5.9609375 c 0.00263,0.1015192 -0.013082,0.1769322 -0.035156,0.2167969 -0.022075,0.039864 -0.037756,0.050781 -0.085937,0.050781 -0.048181,0 -0.065815,-0.010916 -0.087891,-0.050781 C 1.173238,6.13787 1.1575255,6.0624564 1.1601562,5.9609375 L 1.1757812,5.390625 1.1894531,4.8222656 1.2050781,4.2539062 1.2207031,3.6855469 A 0.08599819,0.08599819 0 0 0 1.15625,3.6015625 C 1.0620927,3.5763328 0.99255715,3.5407815 0.94921875,3.5 0.90632755,3.459639 0.88321075,3.415748 0.88085935,3.3417969 0.8803226,3.2599539 0.87889835,3.1826465 0.87890635,3.1035156 c 7.95e-6,-0.079131 0.001624,-0.1608885 0.003906,-0.25 0.001089,-0.04252 0.003959,-0.095625 0.005859,-0.1425781 0.0229023,0.094984 0.0460612,0.1934939 0.0644531,0.2675781 0.0116809,0.047052 0.0214055,0.085978 0.0292969,0.1152344 0.003946,0.014628 0.006673,0.027177 0.009766,0.037109 0.001546,0.00497 0.003806,0.00833 0.005859,0.013672 0.001027,0.00267 0.001624,0.00517 0.003906,0.00977 0.00114,0.0023 0.00572,0.00954 0.00586,0.00977 1.432e-4,2.229e-4 0.015507,0.017473 0.015625,0.017578 2.513e-4,2.247e-4 0.025128,0.017476 0.025391,0.017578 2.625e-4,1.016e-4 0.038789,0.00588 0.039063,0.00586 2.735e-4,-1.93e-5 0.030966,-0.00963 0.03125,-0.00977 2.843e-4,-1.385e-4 0.019236,-0.011463 0.019531,-0.011719 2.95e-4,-2.559e-4 0.00896,-0.00837 0.011719,-0.011719 0.00276,-0.00335 0.00411,-0.00709 0.00586,-0.00977 0.00349,-0.00536 0.00595,-0.00976 0.00781,-0.013672 0.00745,-0.015646 0.011729,-0.026627 0.015625,-0.041016 0.00779,-0.028778 0.014819,-0.066113 0.023437,-0.1113281 0.017238,-0.09043 0.036241,-0.2101601 0.056641,-0.3320313 0.00758,-0.045281 0.013942,-0.081154 0.021484,-0.125 z" style="color:#000000;font-style:normal;font-variant:normal;font-weight:normal;font-stretch:normal;font-size:medium;line-height:normal;font-family:sans-serif;font-variant-ligatures:normal;font-variant-position:normal;font-variant-caps:normal;font-variant-numeric:normal;font-variant-alternates:normal;font-feature-settings:normal;text-indent:0;text-align:start;text-decoration:none;text-decoration-line:none;text-decoration-style:solid;text-decoration-color:#000000;letter-spacing:normal;word-spacing:normal;text-transform:none;writing-mode:lr-tb;direction:ltr;text-orientation:mixed;dominant-baseline:auto;baseline-shift:baseline;text-anchor:start;white-space:normal;shape-padding:0;clip-rule:nonzero;display:inline;overflow:visible;visibility:visible;opacity:1;isolation:auto;mix-blend-mode:normal;color-interpolation:sRGB;color-interpolation-filters:linearRGB;solid-color:#000000;solid-opacity:1;vector-effect:none;fill:#000000;fill-opacity:1;fill-rule:nonzero;stroke:none;stroke-width:0.17197917;stroke-linecap:round;stroke-linejoin:round;stroke-miterlimit:4;stroke-dasharray:none;stroke-dashoffset:0;stroke-opacity:1;color-rendering:auto;image-rendering:auto;shape-rendering:auto;text-rendering:auto;enable-background:accumulate"></path><path d="m 4.4042969,2.0664062 c -1.1955572,1e-7 -2.1679688,0.9704585 -2.1679688,2.1660157 0,1.1955572 0.9724116,2.1679687 2.1679688,2.1679687 1.1955572,0 2.1660156,-0.9724115 2.1660156,-2.1679687 0,-1.1955572 -0.9704584,-2.1660156 -2.1660156,-2.1660157 z m 0,0.171875 c 1.1026127,0 1.9941406,0.8915279 1.9941406,1.9941407 0,1.1026127 -0.8915279,1.9960937 -1.9941406,1.9960937 -1.1026128,0 -1.9960938,-0.893481 -1.9960938,-1.9960937 0,-1.1026128 0.893481,-1.9941406 1.9960938,-1.9941407 z" style="color:#000000;font-style:normal;font-variant:normal;font-weight:normal;font-stretch:normal;font-size:medium;line-height:normal;font-family:sans-serif;font-variant-ligatures:normal;font-variant-position:normal;font-variant-caps:normal;font-variant-numeric:normal;font-variant-alternates:normal;font-feature-settings:normal;text-indent:0;text-align:start;text-decoration:none;text-decoration-line:none;text-decoration-style:solid;text-decoration-color:#000000;letter-spacing:normal;word-spacing:normal;text-transform:none;writing-mode:lr-tb;direction:ltr;text-orientation:mixed;dominant-baseline:auto;baseline-shift:baseline;text-anchor:start;white-space:normal;shape-padding:0;clip-rule:nonzero;display:inline;overflow:visible;visibility:visible;opacity:1;isolation:auto;mix-blend-mode:normal;color-interpolation:sRGB;color-interpolation-filters:linearRGB;solid-color:#000000;solid-opacity:1;vector-effect:none;fill:#000000;fill-opacity:1;fill-rule:nonzero;stroke:none;stroke-width:0.17197917;stroke-linecap:round;stroke-linejoin:round;stroke-miterlimit:4;stroke-dasharray:none;stroke-dashoffset:0;stroke-opacity:1;paint-order:fill markers stroke;color-rendering:auto;image-rendering:auto;shape-rendering:auto;text-rendering:auto;enable-background:accumulate"></path><path d="m 4.4042969,2.7109375 c -0.8392721,0 -1.5214844,0.6822123 -1.5214844,1.5214844 0,0.8392721 0.6822123,1.5214844 1.5214844,1.5214843 0.8392721,0 1.5214844,-0.6822122 1.5214843,-1.5214843 0,-0.8392721 -0.6822122,-1.5214844 -1.5214843,-1.5214844 z m 0,0.1738281 c 0.7463277,0 1.3476562,0.6013286 1.3476562,1.3476563 0,0.7463277 -0.6013285,1.3496093 -1.3476562,1.3496093 -0.7463277,0 -1.3496094,-0.6032816 -1.3496094,-1.3496093 0,-0.7463277 0.6032817,-1.3476563 1.3496094,-1.3476563 z" style="color:#000000;font-style:normal;font-variant:normal;font-weight:normal;font-stretch:normal;font-size:medium;line-height:normal;font-family:sans-serif;font-variant-ligatures:normal;font-variant-position:normal;font-variant-caps:normal;font-variant-numeric:normal;font-variant-alternates:normal;font-feature-settings:normal;text-indent:0;text-align:start;text-decoration:none;text-decoration-line:none;text-decoration-style:solid;text-decoration-color:#000000;letter-spacing:normal;word-spacing:normal;text-transform:none;writing-mode:lr-tb;direction:ltr;text-orientation:mixed;dominant-baseline:auto;baseline-shift:baseline;text-anchor:start;white-space:normal;shape-padding:0;clip-rule:nonzero;display:inline;overflow:visible;visibility:visible;opacity:1;isolation:auto;mix-blend-mode:normal;color-interpolation:sRGB;color-interpolation-filters:linearRGB;solid-color:#000000;solid-opacity:1;vector-effect:none;fill:#000000;fill-opacity:1;fill-rule:nonzero;stroke:none;stroke-width:0.17197917;stroke-linecap:round;stroke-linejoin:round;stroke-miterlimit:4;stroke-dasharray:none;stroke-dashoffset:0;stroke-opacity:1;paint-order:fill markers stroke;color-rendering:auto;image-rendering:auto;shape-rendering:auto;text-rendering:auto;enable-background:accumulate"></path><path d="m 7.6699219,2.0664062 a 0.08599819,0.08599819 0 0 0 -0.068359,0.039063 C 7.4670878,2.3069905 7.3658994,2.5261439 7.2929688,2.7558594 7.220038,2.985575 7.1744484,3.2246643 7.1542969,3.4648438 c -0.020151,0.2401793 -0.014535,0.4830163 0.00977,0.7167968 0.023524,0.2262979 0.066942,0.4434212 0.125,0.6484375 -0.00984,0.09258 -0.024112,0.1702805 -0.039063,0.2441407 -0.015669,0.077408 -0.03203,0.153586 -0.041016,0.2460937 -0.00898,0.092503 -0.011877,0.1993782 0,0.3359375 0.011874,0.1365567 0.037384,0.3030562 0.082031,0.5175781 a 0.08599819,0.08599819 0 0 0 0.00195,0.00586 C 7.3253478,6.3015632 7.4317187,6.372052 7.5351562,6.3710938 7.6385934,6.3701357 7.7445034,6.2893064 7.7578125,6.1660156 a 0.08599819,0.08599819 0 0 0 0.00195,-0.00977 v -1 -1.0019531 -1 -1.0019531 A 0.08599819,0.08599819 0 0 0 7.6699219,2.0664062 Z M 7.5878906,2.53125 v 0.6230469 1 1.0019531 0.9921875 c -0.00497,0.046084 -0.025657,0.050512 -0.054687,0.050781 -0.02903,2.689e-4 -0.060296,-0.012047 -0.074219,-0.064453 C 7.4159576,5.927352 7.3918686,5.7691918 7.3808596,5.642578 7.3697626,5.5149867 7.3709496,5.4198798 7.3789096,5.3378905 c 0.00796,-0.081984 0.02329,-0.1525491 0.039063,-0.2304687 0.015773,-0.077919 0.032274,-0.1637484 0.042969,-0.2714844 a 0.08599819,0.08599819 0 0 0 -0.00195,-0.03125 C 7.4008856,4.6040389 7.3572324,4.3857505 7.3339844,4.1621094 7.3107374,3.9384683 7.3069852,3.7091514 7.3261719,3.4804688 7.3453588,3.2517862 7.3884362,3.0246528 7.4570312,2.8085938 7.488341,2.709975 7.5452971,2.6246478 7.5878906,2.53125 Z" style="color:#000000;font-style:normal;font-variant:normal;font-weight:normal;font-stretch:normal;font-size:medium;line-height:normal;font-family:sans-serif;font-variant-ligatures:normal;font-variant-position:normal;font-variant-caps:normal;font-variant-numeric:normal;font-variant-alternates:normal;font-feature-settings:normal;text-indent:0;text-align:start;text-decoration:none;text-decoration-line:none;text-decoration-style:solid;text-decoration-color:#000000;letter-spacing:normal;word-spacing:normal;text-transform:none;writing-mode:lr-tb;direction:ltr;text-orientation:mixed;dominant-baseline:auto;baseline-shift:baseline;text-anchor:start;white-space:normal;shape-padding:0;clip-rule:nonzero;display:inline;overflow:visible;visibility:visible;opacity:1;isolation:auto;mix-blend-mode:normal;color-interpolation:sRGB;color-interpolation-filters:linearRGB;solid-color:#000000;solid-opacity:1;vector-effect:none;fill:#000000;fill-opacity:1;fill-rule:nonzero;stroke:none;stroke-width:0.17197917;stroke-linecap:round;stroke-linejoin:round;stroke-miterlimit:4;stroke-dasharray:none;stroke-dashoffset:0;stroke-opacity:1;color-rendering:auto;image-rendering:auto;shape-rendering:auto;text-rendering:auto;enable-background:accumulate"></path></g></svg>