<svg height='100px' width='100px'  fill="#000000" xmlns="http://www.w3.org/2000/svg" xmlns:xlink="http://www.w3.org/1999/xlink" version="1.1" x="0px" y="0px" viewBox="0 0 100 100" style="enable-background:new 0 0 100 100;" xml:space="preserve"><g><path d="M17.7,36h1.6c0.5,3.8,3.5,6.8,7.3,7.3v1.6c0,0.6,0.4,1,1,1s1-0.4,1-1v-1.6c3.8-0.5,6.8-3.5,7.3-7.3h1.6c0.6,0,1-0.4,1-1   s-0.4-1-1-1h-1.6c-0.5-3.8-3.5-6.8-7.3-7.3v-1.6c0-0.6-0.4-1-1-1s-1,0.4-1,1v1.6c-3.8,0.5-6.8,3.5-7.3,7.3h-1.6c-0.6,0-1,0.4-1,1   S17.1,36,17.7,36z M26.5,28.7v1.5c0,0.6,0.4,1,1,1s1-0.4,1-1v-1.5c2.7,0.4,4.8,2.6,5.2,5.2h-1.5c-0.6,0-1,0.4-1,1s0.4,1,1,1h1.5   c-0.4,2.7-2.6,4.8-5.2,5.2v-1.5c0-0.6-0.4-1-1-1s-1,0.4-1,1v1.5c-2.7-0.4-4.8-2.6-5.2-5.2h1.5c0.6,0,1-0.4,1-1s-0.4-1-1-1h-1.5   C21.7,31.3,23.8,29.1,26.5,28.7z"></path><path d="M67.7,61.5h-1.6c-0.4-3.1-2.9-5.5-6-6v-1.6c0-0.6-0.4-1-1-1s-1,0.4-1,1v1.6c-3.1,0.4-5.5,2.9-6,6h-1.6c-0.6,0-1,0.4-1,1   s0.4,1,1,1h1.6c0.4,3.1,2.9,5.5,6,6V71c0,0.6,0.4,1,1,1s1-0.4,1-1v-1.6c3.1-0.4,5.5-2.9,6-6h1.6c0.6,0,1-0.4,1-1   S68.3,61.5,67.7,61.5z M60.1,67.4V66c0-0.6-0.4-1-1-1s-1,0.4-1,1v1.4c-2-0.4-3.5-2-3.9-3.9h1.4c0.6,0,1-0.4,1-1s-0.4-1-1-1h-1.4   c0.4-2,2-3.5,3.9-3.9V59c0,0.6,0.4,1,1,1s1-0.4,1-1v-1.4c2,0.4,3.5,2,3.9,3.9h-1.4c-0.6,0-1,0.4-1,1s0.4,1,1,1h1.4   C63.7,65.4,62.1,67,60.1,67.4z"></path><path d="M69,34h-1.6c-0.5-3.8-3.5-6.8-7.3-7.3v-1.6c0-0.6-0.4-1-1-1s-1,0.4-1,1v1.6c-3.8,0.5-6.8,3.5-7.3,7.3h-1.6   c-0.6,0-1,0.4-1,1s0.4,1,1,1h1.6c0.5,3.8,3.5,6.8,7.3,7.3v1.6c0,0.6,0.4,1,1,1s1-0.4,1-1v-1.6c3.8-0.5,6.8-3.5,7.3-7.3H69   c0.6,0,1-0.4,1-1S69.5,34,69,34z M60.1,41.2v-1.5c0-0.6-0.4-1-1-1s-1,0.4-1,1v1.5c-2.7-0.4-4.8-2.6-5.2-5.2h1.5c0.6,0,1-0.4,1-1   s-0.4-1-1-1h-1.5c0.4-2.7,2.6-4.8,5.2-5.2v1.5c0,0.6,0.4,1,1,1s1-0.4,1-1v-1.5c2.7,0.4,4.8,2.6,5.2,5.2h-1.5c-0.6,0-1,0.4-1,1   s0.4,1,1,1h1.5C64.9,38.6,62.8,40.8,60.1,41.2z"></path><path d="M40,61.4h-1.6c-0.5-5.2-4.7-9.4-9.9-9.8v-1.7c0-0.6-0.4-1-1-1s-1,0.4-1,1v1.7c-5.2,0.5-9.4,4.6-9.9,9.8H15   c-0.6,0-1,0.4-1,1s0.4,1,1,1h1.6c0.5,5.2,4.6,9.4,9.9,9.9v1.6c0,0.6,0.4,1,1,1s1-0.4,1-1v-1.6c5.2-0.5,9.4-4.7,9.9-9.9H40   c0.6,0,1-0.4,1-1S40.6,61.4,40,61.4z M28.5,71.3v-1.5c0-0.6-0.4-1-1-1s-1,0.4-1,1v1.5c-4.1-0.5-7.4-3.8-7.9-7.9h1.4   c0.6,0,1-0.4,1-1s-0.4-1-1-1h-1.4c0.5-4.1,3.7-7.4,7.9-7.8V55c0,0.6,0.4,1,1,1s1-0.4,1-1v-1.4c4.1,0.5,7.4,3.7,7.9,7.8h-1.4   c-0.6,0-1,0.4-1,1s0.4,1,1,1h1.4C35.9,67.6,32.7,70.9,28.5,71.3z"></path><path d="M84.5,37.9c2.3,0,4.2-1.9,4.2-4.2s-1.9-4.2-4.2-4.2s-4.2,1.9-4.2,4.2S82.2,37.9,84.5,37.9z M84.5,31.4c1.2,0,2.2,1,2.2,2.2   s-1,2.2-2.2,2.2s-2.2-1-2.2-2.2S83.3,31.4,84.5,31.4z"></path><path d="M84.5,48.8c2.3,0,4.2-1.9,4.2-4.2s-1.9-4.2-4.2-4.2s-4.2,1.9-4.2,4.2S82.2,48.8,84.5,48.8z M84.5,42.3c1.2,0,2.2,1,2.2,2.2   s-1,2.2-2.2,2.2s-2.2-1-2.2-2.2S83.3,42.3,84.5,42.3z"></path><path d="M84.5,59.7c2.3,0,4.2-1.9,4.2-4.2s-1.9-4.2-4.2-4.2s-4.2,1.9-4.2,4.2S82.2,59.7,84.5,59.7z M84.5,53.2c1.2,0,2.2,1,2.2,2.2   s-1,2.2-2.2,2.2s-2.2-1-2.2-2.2S83.3,53.2,84.5,53.2z"></path><path d="M84.5,70.6c2.3,0,4.2-1.9,4.2-4.2s-1.9-4.2-4.2-4.2s-4.2,1.9-4.2,4.2S82.2,70.6,84.5,70.6z M84.5,64.1c1.2,0,2.2,1,2.2,2.2   s-1,2.2-2.2,2.2s-2.2-1-2.2-2.2S83.3,64.1,84.5,64.1z"></path><path d="M92.5,19.4h-19h0h-63c-2.2,0-4,1.8-4,4v53.2c0,2.2,1.8,4,4,4h63h0h19c0.6,0,1-0.4,1-1V20.4C93.5,19.8,93.1,19.4,92.5,19.4z    M73.5,78.6h-63c-1.1,0-2-0.9-2-2V23.4c0-1.1,0.9-2,2-2h63h0c1.1,0,2,0.9,2,2v53.2C75.5,77.7,74.6,78.6,73.5,78.6L73.5,78.6z    M91.5,78.6H77c0.3-0.6,0.6-1.3,0.6-2V23.4c0-0.7-0.2-1.4-0.6-2h14.5V78.6z"></path></g></svg>