<svg height='100px' width='100px'  fill="#000000" xmlns:x="http://ns.adobe.com/Extensibility/1.0/" xmlns:i="http://ns.adobe.com/AdobeIllustrator/10.0/" xmlns:graph="http://ns.adobe.com/Graphs/1.0/" xmlns="http://www.w3.org/2000/svg" xmlns:xlink="http://www.w3.org/1999/xlink" version="1.1" x="0px" y="0px" viewBox="0 0 64 64" enable-background="new 0 0 64 64" xml:space="preserve"><metadata><sfw xmlns="http://ns.adobe.com/SaveForWeb/1.0/"><slices></slices><sliceSourceBounds height="16385.906" width="16389" x="-8165" y="-8161.906" bottomLeftOrigin="true"></sliceSourceBounds></sfw></metadata><g><g><path d="M11,41h32V19H11V41z M37.293,21.293c0.391-0.391,1.023-0.391,1.414,0l2,2c0.391,0.391,0.391,1.023,0,1.414    C40.512,24.903,40.256,25,40,25s-0.512-0.098-0.707-0.293l-2-2C36.902,22.317,36.902,21.684,37.293,21.293z M36.707,25.293l4,4    c0.391,0.391,0.391,1.023,0,1.414C40.512,30.903,40.256,31,40,31s-0.512-0.098-0.707-0.293l-4-4c-0.391-0.391-0.391-1.023,0-1.414    S36.316,24.903,36.707,25.293z M31.293,21.293c0.391-0.391,1.023-0.391,1.414,0l2,2c0.391,0.391,0.391,1.023,0,1.414    C34.512,24.903,34.256,25,34,25s-0.512-0.098-0.707-0.293l-2-2C30.902,22.317,30.902,21.684,31.293,21.293z"></path><circle cx="51" cy="21" r="2"></circle><path d="M58,13H6c-0.552,0-1,0.448-1,1v32c0,0.553,0.448,1,1,1h9v3c0,0.553,0.448,1,1,1s1-0.447,1-1v-3h30v3c0,0.553,0.447,1,1,1    s1-0.447,1-1v-3h9c0.553,0,1-0.447,1-1V14C59,13.448,58.553,13,58,13z M45,42c0,0.553-0.447,1-1,1H10c-0.552,0-1-0.447-1-1V18    c0-0.552,0.448-1,1-1h34c0.553,0,1,0.448,1,1V42z M50,42h-2v-2h2V42z M50,38h-2v-2h2V38z M50,34h-2v-2h2V34z M50,30h-2v-2h2V30z     M54,42h-2v-2h2V42z M54,38h-2v-2h2V38z M54,34h-2v-2h2V34z M54,30h-2v-2h2V30z M51,25c-2.206,0-4-1.794-4-4s1.794-4,4-4    s4,1.794,4,4S53.206,25,51,25z"></path></g></g></svg>