<svg height='100px' width='100px'  fill="#000000" xmlns="http://www.w3.org/2000/svg" xmlns:xlink="http://www.w3.org/1999/xlink" version="1.1" x="0px" y="0px" viewBox="0 0 100 100" style="enable-background:new 0 0 100 100;" xml:space="preserve"><g><path d="M49.99902,47.09087C32.70444,47.09087,0,44.7001,0,35.65287s32.70444-11.43801,49.99902-11.43801   c2.24044,0,4.48087,0.00098,6.60535,0.05798c0.92958,0.02555,1.66264,0.79889,1.63709,1.72749   c-0.02555,0.91386-0.77236,1.63807-1.68229,1.63807c-0.01376,0-0.02948-0.00098-0.0452-0.00098   c-2.09697-0.05699-4.30595-0.05601-6.51495-0.05601c-30.17314,0-46.63443,5.33184-46.63443,8.07146   c0,2.73962,16.46129,8.07146,46.63443,8.07146c30.17511,0,46.63641-5.33184,46.63641-8.07146   c0-0.55618-1.55848-2.4124-8.67677-4.30694c-0.89814-0.23878-1.43269-1.16051-1.19293-2.05864   c0.2378-0.89814,1.15952-1.42975,2.05766-1.19392C96.34456,30.09502,100,32.56736,100,35.65287   C100,44.7001,67.29359,47.09087,49.99902,47.09087z"></path><path d="M49.99902,91.01615c-0.9119,0-1.66067-0.72912-1.68229-1.64494c-0.02162-0.9286,0.71537-1.69998,1.64299-1.72062   c25.73748-0.5886,46.67571-9.5071,46.67571-19.88091c0-0.92958,0.7527-1.68327,1.68229-1.68327   c0.92958,0,1.68229,0.75369,1.68229,1.68327c0,14.35647-25.74141,22.69226-49.96168,23.24549   C50.02457,91.01517,50.01081,91.01615,49.99902,91.01615z"></path><path d="M98.31771,69.45296c-0.92959,0-1.68229-0.75368-1.68229-1.68327V35.65287c0-0.92958,0.7527-1.68327,1.68229-1.68327   c0.92958,0,1.68229,0.75369,1.68229,1.68327v32.11681C100,68.69927,99.24729,69.45296,98.31771,69.45296z"></path><path d="M71.04927,35.11143c-7.23621,0-19.47998-1.34033-19.47998-6.36067c0-5.06652,12.24377-6.41865,19.47998-6.41865   c7.21459,0,19.42496,1.35212,19.42496,6.41865C90.47423,33.7711,78.26386,35.11143,71.04927,35.11143z M54.99872,28.73897   c0.85687,0.98461,6.14547,3.00591,16.05055,3.00591c9.8697,0,15.14062-2.0213,15.99552-3.00591   c-0.8215-0.99346-6.06097-3.04031-15.99552-3.04031C61.07737,25.69866,55.82218,27.74551,54.99872,28.73897z"></path><path d="M80.86198,29.74913c-0.92958,0-1.68229-0.75369-1.68229-1.68327V19.224c0-0.92958,0.75271-1.68327,1.68229-1.68327   s1.68229,0.75369,1.68229,1.68327v8.84185C82.54427,28.99544,81.79156,29.74913,80.86198,29.74913z"></path><path d="M80.86198,20.90728c-3.28793,0-5.96073-2.67476-5.96073-5.96172s2.6728-5.96172,5.96073-5.96172   s5.96073,2.67476,5.96073,5.96172C86.82271,18.28852,84.20494,20.90728,80.86198,20.90728z M80.86198,12.35039   c-1.40715,0-2.59615,1.18802-2.59615,2.59517c0,1.43073,1.16542,2.59517,2.59615,2.59517   c1.45628,0,2.59615-1.13987,2.59615-2.59517C83.45813,13.51483,82.29271,12.35039,80.86198,12.35039z"></path><path d="M49.99902,84.513c-21.02863,0-43.72383-7.7973-43.72383-20.39384V40.44524c0-0.92958,0.75271-1.68327,1.68229-1.68327   s1.68229,0.75369,1.68229,1.68327v23.67392c0,9.07081,18.85895,17.0273,40.35925,17.0273   c21.53175,0,40.41821-7.95649,40.41821-17.0273V40.44524c0-0.92958,0.75271-1.68327,1.6823-1.68327   c0.92958,0,1.68229,0.75369,1.68229,1.68327v23.67392C93.78181,76.7157,71.05517,84.513,49.99902,84.513z"></path><path d="M49.99902,91.01615c-0.01179,0-0.02555-0.00098-0.0393-0.00098C25.74141,90.46194,0,82.12615,0,67.76968   c0-0.92958,0.75271-1.68327,1.68229-1.68327s1.68229,0.75369,1.68229,1.68327c0,10.3738,20.93823,19.2923,46.67374,19.88091   c0.92762,0.02064,1.6646,0.79202,1.64299,1.72062C51.65969,90.28703,50.91091,91.01615,49.99902,91.01615z"></path><path d="M1.68229,69.45296C0.75271,69.45296,0,68.69927,0,67.76968V35.65287c0-0.92958,0.75271-1.68327,1.68229-1.68327   s1.68229,0.75369,1.68229,1.68327v32.11681C3.36458,68.69927,2.61187,69.45296,1.68229,69.45296z"></path><path d="M8.18348,67.91315c-0.28497,0-0.57386-0.07272-0.83918-0.22503c-0.8038-0.46479-1.08091-1.49362-0.6171-2.29841   l13.1203-22.76202c0.46577-0.80479,1.49166-1.08091,2.29939-0.61808c0.8038,0.46479,1.08091,1.49362,0.6171,2.29841   L9.64369,67.07005C9.33121,67.6105,8.76521,67.91315,8.18348,67.91315z"></path><path d="M15.76951,76.58402c-0.28497,0-0.57386-0.07272-0.83721-0.22502c-0.80577-0.46381-1.08288-1.49264-0.61907-2.29841   l17.34175-30.12008c0.46184-0.80577,1.49755-1.08091,2.29743-0.61808c0.80577,0.46381,1.08288,1.49264,0.61907,2.29841   L17.22972,75.74091C16.91921,76.28137,16.35124,76.58402,15.76951,76.58402z"></path><path d="M25.7532,81.03345c-0.28497,0-0.57387-0.07272-0.83918-0.22601c-0.80577-0.46479-1.08091-1.49362-0.6171-2.29841   l19.62345-33.99957c0.46577-0.80479,1.49166-1.08288,2.29939-0.61612c0.80577,0.46479,1.08091,1.49362,0.6171,2.29841   L27.21341,80.19132C26.90093,80.73177,26.33492,81.03345,25.7532,81.03345z"></path><path d="M36.81976,83.54313c-0.28497,0-0.57583-0.07272-0.84114-0.22699c-0.80381-0.46577-1.07895-1.49461-0.61317-2.29939   L56.52969,44.4505c0.46577-0.80282,1.49166-1.08288,2.29939-0.61317c0.80381,0.46577,1.07895,1.49461,0.61317,2.29939   L38.27801,82.70296C37.96553,83.24146,37.40149,83.54313,36.81976,83.54313z"></path><path d="M48.80019,84.513c-0.28497,0-0.57583-0.07272-0.83918-0.22601c-0.80577-0.46577-1.08091-1.49461-0.61514-2.29939   L69.536,43.5956c0.46185-0.80282,1.49165-1.07993,2.29939-0.61514c0.8038,0.46577,1.07894,1.49461,0.61317,2.29939   L50.25843,83.67185C49.94792,84.21133,49.38192,84.513,48.80019,84.513z"></path><path d="M61.8065,83.77209c-0.28497,0-0.57386-0.07272-0.83918-0.22601c-0.80577-0.46381-1.08091-1.49362-0.6171-2.29841   l22.87601-39.64782c0.46577-0.80479,1.49165-1.08386,2.29939-0.61612c0.80577,0.46381,1.08091,1.49362,0.6171,2.29841   L63.26671,82.92995C62.95423,83.47041,62.38823,83.77209,61.8065,83.77209z"></path><path d="M76.35359,80.29155c-0.28497,0-0.57583-0.07272-0.84114-0.22699c-0.8038-0.46479-1.07895-1.49461-0.61317-2.29939   L90.64324,50.5547c0.46577-0.80282,1.49165-1.08189,2.29939-0.61317c0.8038,0.46479,1.07894,1.49461,0.61317,2.29939   L77.81184,79.45139C77.49936,79.98988,76.93533,80.29155,76.35359,80.29155z"></path></g></svg>