<svg height='100px' width='100px'  fill="#000000" xmlns="http://www.w3.org/2000/svg" viewBox="0 0 60 60" x="0px" y="0px"><title>Asset 88</title><g data-name="Layer 2"><g data-name="Layer 1"><path d="M56.883,18H57a3,3,0,0,0,3-3V13a1,1,0,0,0-1-1H57V11a5.006,5.006,0,0,0-5-5H39V5a5.006,5.006,0,0,0-5-5H26a5.006,5.006,0,0,0-5,5V6H8a5.006,5.006,0,0,0-5,5v1H1a1,1,0,0,0-1,1v2a3,3,0,0,0,3,3h.117l.453,3.62A4.956,4.956,0,0,0,4.545,24H1a1,1,0,0,0-1,1v2a3,3,0,0,0,3,3h.117l.453,3.62a4.977,4.977,0,0,0,1.035,2.471.992.992,0,0,0-.583.7L.741,52.2A3,3,0,0,0,3.631,56H6v1a3,3,0,0,0,3,3h2a3,3,0,0,0,3-3V56H46v1a3,3,0,0,0,3,3h2a3,3,0,0,0,3-3V56h2.369a2.977,2.977,0,0,0,2.388-1.185,2.936,2.936,0,0,0,.517-2.558l-3.3-15.465a.992.992,0,0,0-.583-.7A4.977,4.977,0,0,0,56.43,33.62L56.883,30H57a3,3,0,0,0,3-3V25a1,1,0,0,0-1-1H55.455a4.956,4.956,0,0,0,.975-2.38ZM23,5a3,3,0,0,1,3-3h8a3,3,0,0,1,3,3V6H23ZM5,11A3,3,0,0,1,8,8H52a3,3,0,0,1,3,3v1H5Zm7,46a1,1,0,0,1-1,1H9a1,1,0,0,1-1-1V56h4Zm40,0a1,1,0,0,1-1,1H49a1,1,0,0,1-1-1V56h4Zm5.333-4.268A1,1,0,0,1,56.369,54H3.631a.993.993,0,0,1-.8-.4,1.032,1.032,0,0,1-.153-.932L5.81,38H54.191ZM58,27a1,1,0,0,1-1,1H56a1,1,0,0,0-.992.876l-.562,4.5A3,3,0,0,1,51.469,36H8.531a3,3,0,0,1-2.977-2.628l-.562-4.5A1,1,0,0,0,4,28H3a1,1,0,0,1-1-1V26H58ZM55.008,16.876l-.562,4.5A3,3,0,0,1,51.469,24H8.531a3,3,0,0,1-2.977-2.628l-.562-4.5A1,1,0,0,0,4,16H3a1,1,0,0,1-1-1V14H58v1a1,1,0,0,1-1,1H56A1,1,0,0,0,55.008,16.876Z"></path><rect x="9" y="45" width="4" height="2"></rect><rect x="16" y="45" width="4" height="2"></rect><rect x="23" y="45" width="4" height="2"></rect><path d="M48,40a3,3,0,0,0-3,3v6a3,3,0,0,0,6,0V43A3,3,0,0,0,48,40Zm0,2a1,1,0,0,1,1,1v3H47V43A1,1,0,0,1,48,42Zm0,8a1,1,0,0,1-1-1V48h2v1A1,1,0,0,1,48,50Z"></path><path d="M36,40a6,6,0,1,0,6,6A6.006,6.006,0,0,0,36,40Zm0,10a4,4,0,1,1,4-4A4,4,0,0,1,36,50Z"></path><rect x="33.172" y="45" width="5.657" height="2" transform="translate(-21.983 38.929) rotate(-45)"></rect></g></g></svg>