<svg height='100px' width='100px'  fill="#000000" xmlns="http://www.w3.org/2000/svg" xmlns:xlink="http://www.w3.org/1999/xlink" version="1.1" x="0px" y="0px" viewBox="0 0 100 100" style="enable-background:new 0 0 100 100;" xml:space="preserve"><g><path d="M16.9,87.3h66.3c4.9,0,8.8-4,8.8-8.8V21.5c0-4.9-4-8.8-8.8-8.8H16.9c-4.9,0-8.8,4-8.8,8.8v56.9C8,83.3,12,87.3,16.9,87.3z    M12.4,21.5c0-2.4,2-4.4,4.4-4.4h66.3c2.4,0,4.4,2,4.4,4.4v56.9c0,2.4-2,4.4-4.4,4.4H16.9c-2.4,0-4.4-2-4.4-4.4V21.5z"></path><path d="M36.7,55.2L27,51.5c-1.1-0.4-2.4,0.1-2.9,1.3c-0.4,1.1,0.1,2.4,1.3,2.9l6.4,2.5l-6.1,3.5c-1.1,0.6-1.4,2-0.8,3   c0.4,0.7,1.2,1.1,1.9,1.1c0.4,0,0.8-0.1,1.1-0.3l6.1-3.5l-1,6.8c-0.2,1.2,0.7,2.3,1.9,2.5c0.1,0,0.2,0,0.3,0c1.1,0,2-0.8,2.2-1.9   L38.9,59l8.9-5.2v10.3l-8.1,6.5c-1,0.8-1.1,2.2-0.3,3.1c0.8,1,2.2,1.1,3.1,0.3l5.4-4.3v7c0,1.2,1,2.2,2.2,2.2s2.2-1,2.2-2.2v-7   l5.4,4.3c0.4,0.3,0.9,0.5,1.4,0.5c0.6,0,1.3-0.3,1.7-0.8c0.8-1,0.6-2.3-0.3-3.1l-8.1-6.5V53.8l8.9,5.2l1.5,10.3   c0.2,1.1,1.1,1.9,2.2,1.9c0.1,0,0.2,0,0.3,0c1.2-0.2,2-1.3,1.9-2.5l-1-6.8l6.1,3.5c0.3,0.2,0.7,0.3,1.1,0.3c0.8,0,1.5-0.4,1.9-1.1   c0.6-1.1,0.3-2.4-0.8-3l-6.1-3.5l6.4-2.5c1.1-0.4,1.7-1.7,1.3-2.9c-0.4-1.1-1.7-1.7-2.9-1.3l-9.7,3.7L54.4,50l8.9-5.2l9.7,3.7   c0.3,0.1,0.5,0.1,0.8,0.1c0.9,0,1.7-0.5,2.1-1.4c0.4-1.1-0.1-2.4-1.3-2.9l-6.4-2.5l6.1-3.5c1.1-0.6,1.4-2,0.8-3   c-0.6-1.1-2-1.4-3-0.8L66,38.1l1-6.8c0.2-1.2-0.7-2.3-1.9-2.5c-1.2-0.2-2.3,0.7-2.5,1.9L61.1,41l-8.9,5.2V35.9l8.1-6.5   c1-0.8,1.1-2.2,0.3-3.1c-0.8-1-2.2-1.1-3.1-0.3l-5.4,4.3v-7c0-1.2-1-2.2-2.2-2.2s-2.2,1-2.2,2.2v7l-5.4-4.3c-1-0.8-2.3-0.6-3.1,0.3   c-0.8,1-0.6,2.3,0.3,3.1l8.1,6.5v10.3L38.9,41l-1.5-10.3c-0.2-1.2-1.3-2-2.5-1.9c-1.2,0.2-2,1.3-1.9,2.5l1,6.8L28,34.6   c-1.1-0.6-2.4-0.3-3,0.8c-0.6,1.1-0.3,2.4,0.8,3l6.1,3.5l-6.4,2.5c-1.1,0.4-1.7,1.7-1.3,2.9c0.3,0.9,1.2,1.4,2.1,1.4   c0.3,0,0.5,0,0.8-0.1l9.7-3.7l8.9,5.2L36.7,55.2z"></path></g></svg>