<svg height='100px' width='100px'  fill="#000000" xmlns="http://www.w3.org/2000/svg" xmlns:xlink="http://www.w3.org/1999/xlink" version="1.1" x="0px" y="0px" viewBox="0 0 100 100" enable-background="new 0 0 100 100" xml:space="preserve"><g><g><path fill="none" d="M38.935,27.127c-0.086-0.083-0.172-0.165-0.258-0.248c-0.135,0.252-0.269,0.504-0.404,0.757    C38.493,27.466,38.714,27.296,38.935,27.127z"></path><path fill="none" d="M32.926,51.432c-0.191,7.378,2.035,13.736,6.108,19.579c0.227,0.325,0.713,0.495,1.078,0.737    c-0.057-0.37-0.046-0.764-0.182-1.107c-3.746-9.429-3.222-18.831,0.248-28.195c1.697-4.58,3.825-9.046,5.158-13.711    c1.33-4.654,1.92-9.491,2.802-14.252c0.061-0.332-0.148-0.706-0.231-1.061c-0.183,0.329-0.419,0.643-0.542,0.991    c-1.038,2.934-1.785,5.987-3.14,8.787c-2.352,4.858-5.121,9.54-7.631,14.334C34.241,42.025,32.581,46.696,32.926,51.432z"></path><path fill="none" d="M24.334,76.562c-3.116-1.942-5.314-4.569-6.791-7.792c-5.213-11.373-1.492-24.745,9.177-32.759    c0.966-0.726,1.884-1.506,2.824-2.261c0.812-0.588,1.624-1.177,2.436-1.765c-0.014,0.006-0.027,0.012-0.041,0.018    c-0.91,0.471-1.82,0.943-2.729,1.414c-2.938,2.16-5.959,4.23-8.797,6.499c-6.451,5.157-8.925,11.977-8.074,19.576    c1.116,9.968,7.146,16.918,16.942,21.048c0.921,0.388,1.941,0.573,2.916,0.852c-0.761-0.534-1.491-1.114-2.29-1.593    C28.064,78.698,26.152,77.696,24.334,76.562z"></path><path fill="none" d="M36.283,77.191c-7.306-5.669-11.121-12.904-11.38-21.76c-0.204-6.981,1.624-13.434,5.615-19.362    c0.236-0.35,0.266-0.819,0.392-1.233c-0.358,0.15-0.755,0.249-1.067,0.458C19.694,42.08,15.12,51.257,16.938,62.764    C17.764,68,19.992,72.862,25.478,75.64c0.178,0.142,0.355,0.283,0.532,0.425c-0.067-0.246-0.134-0.492-0.201-0.738    c-5.812-6.656-8.041-14.335-7.501-22.787c0.054-0.853,0.224-1.749,0.603-2.512c0.186-0.375,0.973-0.494,1.488-0.729    c0.181,0.475,0.507,0.945,0.521,1.424c0.098,3.463-0.266,6.981,0.265,10.381c1.494,9.565,7.887,15.514,17.273,19.002    c0.333,0.124,0.767,0.013,1.154,0.012c-0.22-0.301-0.386-0.66-0.671-0.892C38.079,78.521,37.164,77.875,36.283,77.191z"></path><path fill="none" d="M42.63,77.758c-0.763-1.029-1.484-2.088-2.295-3.083c-10.263-12.584-11.75-25.873-3.704-39.909    c1.26-2.198,2.475-4.354,1.529-6.934c-2.474,3.401-5.163,6.689-7.343,10.246c-1.576,2.57-2.84,5.416-3.597,8.286    c-2.388,9.063-1.289,17.633,5.101,25.221c0.357,0.523,0.715,1.047,1.072,1.57c-0.227-0.633-0.453-1.266-0.68-1.899    c-4.178-6.991-5.722-14.493-4.993-22.419c0.105-1.142,0.408-2.285,0.786-3.378c0.087-0.252,0.872-0.424,1.314-0.39    c0.246,0.019,0.571,0.521,0.632,0.842c0.067,0.355-0.204,0.754-0.196,1.131c0.093,4.342-0.334,8.77,0.444,13.007    c1.335,7.272,5.247,13.388,11.696,17.932c0.221,0.07,0.441,0.139,0.662,0.209C42.915,78.045,42.773,77.902,42.63,77.758z"></path><path fill="none" d="M41.485,21.933c-0.009,0.076,0.065,0.161,0.103,0.243c0.056-0.071,0.148-0.138,0.157-0.214    c0.009-0.077-0.065-0.163-0.103-0.244C41.586,21.789,41.494,21.857,41.485,21.933z"></path><path fill="none" d="M33.53,73.356c0.006,0.01,0.013,0.019,0.019,0.029l0.199-0.106L33.53,73.356z"></path><path fill="none" d="M41.737,15.193c0.195-0.205,0.523-0.389,0.563-0.617c0.182-1.049,0.283-2.11,0.363-2.762    c0-1.089,0.076-1.776-0.034-2.438c-0.052-0.312-0.46-0.572-0.707-0.855c-0.203,0.336-0.577,0.67-0.58,1.008    c-0.015,1.647,0.059,3.295,0.129,4.942C41.482,14.714,41.645,14.953,41.737,15.193z"></path><path fill="none" d="M58.296,11.641c0.105-0.593-0.034-1.223-0.086-1.84c-0.543,0.526-1.417,1.027-1.467,1.59    c-0.074,0.842,0.485,1.733,0.774,2.603C57.787,13.211,58.154,12.443,58.296,11.641z"></path><path fill="none" d="M51.264,14.257c-0.065-0.936-0.157-1.87-0.238-2.804c-0.023,0.933-0.07,1.865-0.053,2.797    c0.004,0.24,0.148,0.478,0.254,0.716C51.249,14.729,51.28,14.492,51.264,14.257z"></path><path fill="none" d="M46.178,12.727c-0.047-0.079-0.094-0.157-0.141-0.236c-0.078,0.133-0.18,0.259-0.221,0.4    c-0.019,0.063,0.083,0.157,0.13,0.238C46.023,12.995,46.1,12.861,46.178,12.727z"></path><path fill="none" d="M80.311,51.474c0.078-2.828-0.664-5.407-2.477-7.674c-0.254-0.317-0.745-0.47-1.126-0.7    c0.045,0.362,0.036,0.739,0.143,1.084c1.95,6.286,0.764,12.145-3.105,17.481c-3.607,4.976-7.483,9.783-11.234,14.67    c-0.293,0.381-0.529,0.799-0.792,1.2c0.464-0.058,1.013,0.013,1.38-0.194C73.561,71.425,79.219,62.75,80.311,51.474z"></path><path fill="none" d="M77.692,38.437c-5.438-4.808-10.897-9.594-16.352-14.384c-0.219-0.192-0.502-0.322-0.755-0.481    c0.014,0.33-0.097,0.727,0.061,0.979c2.324,3.704,4.979,7.153,8.742,9.755c2.426,1.677,4.877,3.333,7.196,5.134    c4.682,3.635,6.704,8.352,5.875,13.957c-1.629,11.013-7.507,19.546-17.656,25.512c-0.538,0.316-0.959,0.805-1.425,1.227    c0.476-0.04,0.982-0.015,1.4-0.181c10.201-4.062,17.469-10.622,19.613-21.032C85.995,51.139,84.082,44.087,77.692,38.437z"></path><path fill="none" d="M84.341,43.011c-2.283-3.183-5.307-5.938-8.187-8.714c-2.383-2.297-5.14-4.256-7.571-6.514    c-3.555-3.304-5.836-7.283-6.62-11.938c-0.225-1.337-0.295-2.699-0.562-4.027c-0.099-0.491-0.561-0.919-0.858-1.375    c-0.323,0.409-0.876,0.792-0.935,1.232c-0.671,5.001-0.135,9.63,4.298,13.289c4.287,3.539,8.149,7.548,12.609,10.876    c9.855,7.355,11.758,18.572,7.507,28.317c-0.509,1.166-0.829,2.404-1.22,3.615C88.826,61.15,89.689,50.467,84.341,43.011z"></path><path fill="none" d="M68.694,36.464c-0.575-0.389-1.239-0.664-1.862-0.992c0.091,0.706,0.077,1.44,0.288,2.114    c2.032,6.486,3.044,13.053,1.762,19.779c-1.387,7.276-5.092,13.596-9.556,19.587c0.438-0.142,1.018-0.168,1.286-0.449    c5.621-5.893,10.734-12.142,14.206-19.364C78.646,49.178,76.297,41.605,68.694,36.464z"></path><path fill="none" d="M81.452,69.77l0.143,0.036c0.001-0.008,0.002-0.016,0.003-0.024L81.452,69.77z"></path><path fill="none" d="M68.178,50.582c-0.281-5.067-1.023-11.015-3.986-16.497c-0.632-1.169-1.69-2.144-2.594-3.177    c-0.158-0.181-0.526-0.204-0.797-0.299c-0.066,0.269-0.214,0.546-0.181,0.804c0.098,0.767,0.252,1.528,0.41,2.287    c1.157,5.556,1.243,11.118,0.567,16.751c-1.132,9.435-2.386,18.828-5.872,27.829c-0.119,0.307,0.029,0.703,0.052,1.058    c0.287-0.246,0.658-0.446,0.848-0.746c2.789-4.413,5.785-8.732,8.258-13.295C67.195,61.034,68.266,56.37,68.178,50.582z"></path><path fill="none" d="M51.25,15.177c-0.066,0.439-0.151,0.877-0.176,1.318c-0.702,12.372-1.451,24.742-2.07,37.118    c-0.319,6.377-0.822,12.782,0.551,19.113c0.368,1.696,1.163,3.312,1.762,4.964c0.479-1.739,1.315-3.466,1.379-5.218    c0.449-12.187,0.982-24.38,0.978-36.571c-0.002-6.36-1.019-12.721-1.636-19.077C51.983,16.257,51.538,15.724,51.25,15.177z"></path><path fill="none" d="M59.273,77.026l0.081,0.164l-0.036-0.227C59.303,76.984,59.288,77.005,59.273,77.026z"></path><path fill="none" d="M60.953,43.981c-0.226-5.906-0.93-11.625-2.889-17.041c-1.645-4.549-3.141-8.998-2.615-13.848    c0.041-0.38,0.108-0.888-0.106-1.137c-0.669-0.779-1.468-1.462-2.216-2.182c-0.189,0.738-0.525,1.476-0.529,2.215    c-0.006,0.957,0.25,1.916,0.397,2.873c0.455,2.972,1.119,5.93,1.332,8.917c0.971,13.648,0.986,27.304,0.224,40.965    c-0.225,4.035-0.24,8.079-0.35,12.119c-0.005,0.182,0.007,0.364,0.011,0.546c0.211-0.155,0.53-0.271,0.614-0.472    c0.337-0.81,0.614-1.643,0.89-2.474C59.033,64.479,59.949,54.146,60.953,43.981z"></path><path fill="none" d="M49.856,25.529c0-2.226,0.01-4.451-0.009-6.677c-0.003-0.37-0.129-0.74-0.198-1.11    c-0.24,0.37-0.598,0.713-0.702,1.113c-1.143,4.409-2.036,8.885-3.418,13.227c-1.473,4.631-3.578,9.087-5.087,13.709    c-2.68,8.207-2.646,16.457,0.785,24.48c1.055,2.468,2.946,4.632,4.497,6.91c0.184,0.27,0.637,0.382,0.965,0.566    c0.01-0.366,0.104-0.749,0.017-1.094c-0.715-2.824-1.526-5.628-2.152-8.468c-0.13-0.588,0.387-1.298,0.605-1.952    c0.491,0.404,1.032,0.768,1.458,1.225c0.315,0.338,0.482,0.795,0.715,1.2c0.082-0.456,0.225-0.91,0.238-1.367    c0.178-5.997,0.221-12,0.53-17.991c0.409-7.928,1.022-15.847,1.547-23.77C49.717,25.53,49.787,25.529,49.856,25.529z"></path><path d="M85.451,40.746c-2.322-3.157-5.505-5.786-8.419-8.543c-2.117-2.003-4.488-3.774-6.655-5.735    c-4.329-3.92-6.41-8.793-6.552-14.345c-0.049-1.929-0.231-3.259-2.457-4.34c-2.606-1.266-2.461-1.688-4.558-0.156    c-1.203,0.879-1.793,0.793-2.676-0.413c-1.088-1.487-1.782-1.421-3.26-0.186c-0.387,0.323-0.715,0.707-1.079,1.054    c-2.375,2.267-2.392,2.234-4.914-0.038c-1.111-1.001-2.273-2.038-3.615-2.711c-1.521-0.763-2.343-0.189-2.386,1.446    c-0.033,1.257,0.032,2.528,0.205,3.775c1.208,8.708-1.724,15.456-10.006,20.311c-4.372,2.563-8.372,5.829-12.031,9.248    c-6.542,6.113-8.465,13.91-6.603,22.066c2.849,12.483,11.961,19.537,25.027,22.495c2.127,0.482,4.307,0.758,6.458,1.156    c0.577,0.107,1.134,0.311,1.7,0.471c-0.334,0.448-0.595,0.969-1.016,1.33c-0.841,0.723-1.791,1.336-2.656,2.037    c-1.02,0.826-2.072,1.638-2.95,2.584c-0.268,0.288-0.004,1.001,0.016,1.52c0.477-0.041,1.073,0.071,1.408-0.153    c1.013-0.678,1.9-1.514,2.881-2.236c0.972-0.715,1.864-2.093,3.284-0.467c0.131,0.15,0.94,0.072,1.104-0.131    c1.011-1.251,2.571-0.752,3.773-1.178c1.739-0.617,1.811,0.26,1.918,1.222c0.095,0.857-0.21,1.756-0.084,2.604    C51.39,93.986,51.927,94.48,52.26,95c0.376-0.406,0.899-0.759,1.092-1.23c0.254-0.619,0.199-1.34,0.365-1.998    c0.207-0.818,0.505-1.615,0.764-2.422c0.558,0.591,1.128,1.172,1.669,1.776c0.395,0.44,0.671,1.021,1.156,1.325    c0.29,0.182,0.881-0.051,1.336-0.098c-0.338-2.062,0.529-2.313,2.301-1.375c0.028,0.015,0.642-0.926,1.006-1.459    c1.055,0.232,2.104,0.502,3.172,0.66c0.327,0.048,0.867-0.146,1.028-0.389c0.178-0.269,0.198-0.887-0.005-1.062    c-0.515-0.445-1.175-0.759-1.809-1.07c-1.656-0.811-3.347-1.562-4.981-2.408c-0.39-0.202-0.615-0.679-0.916-1.03    c0.426-0.217,0.827-0.552,1.28-0.633c5.314-0.959,9.935-3.401,14.682-5.656c5.754-2.734,9.756-6.949,12.61-12.136    C91.731,57.216,91.298,48.696,85.451,40.746z M58.21,9.801c0.052,0.617,0.191,1.247,0.086,1.84    c-0.142,0.802-0.509,1.57-0.779,2.353c-0.289-0.87-0.849-1.76-0.774-2.603C56.793,10.828,57.667,10.327,58.21,9.801z     M51.026,11.453c0.081,0.935,0.173,1.869,0.238,2.804c0.016,0.235-0.015,0.472-0.037,0.709c-0.105-0.239-0.249-0.476-0.254-0.716    C50.956,13.318,51.003,12.385,51.026,11.453z M46.036,12.491c0.047,0.079,0.094,0.157,0.141,0.236    c-0.077,0.134-0.155,0.268-0.232,0.402c-0.047-0.08-0.149-0.174-0.13-0.238C45.856,12.749,45.959,12.623,46.036,12.491z     M41.923,8.521c0.247,0.284,0.656,0.544,0.707,0.855c0.11,0.662,0.034,1.35,0.034,2.438c-0.08,0.651-0.182,1.712-0.363,2.762    c-0.039,0.228-0.368,0.413-0.563,0.617c-0.093-0.241-0.255-0.479-0.266-0.723c-0.071-1.647-0.144-3.295-0.129-4.942    C41.345,9.191,41.719,8.857,41.923,8.521z M41.745,21.961c-0.009,0.076-0.101,0.143-0.157,0.214    c-0.038-0.081-0.112-0.166-0.103-0.243c0.009-0.076,0.101-0.144,0.157-0.216C41.68,21.799,41.754,21.884,41.745,21.961z     M44.225,23.199c1.355-2.8,2.102-5.853,3.14-8.787c0.123-0.348,0.359-0.661,0.542-0.991c0.083,0.355,0.293,0.73,0.231,1.061    c-0.882,4.762-1.471,9.599-2.802,14.252c-1.333,4.665-3.461,9.131-5.158,13.711c-3.47,9.364-3.994,18.765-0.248,28.195    c0.136,0.343,0.125,0.737,0.182,1.107c-0.365-0.242-0.851-0.412-1.078-0.737c-4.073-5.842-6.299-12.201-6.108-19.579    c-0.345-4.736,1.315-9.407,3.668-13.899C39.104,32.739,41.873,28.057,44.225,23.199z M38.935,27.127    c-0.221,0.17-0.442,0.339-0.662,0.509c0.135-0.252,0.269-0.504,0.404-0.757C38.763,26.962,38.849,27.044,38.935,27.127z     M29.28,80.541c-9.796-4.13-15.826-11.08-16.942-21.048c-0.851-7.599,1.624-14.419,8.074-19.576    c2.837-2.268,5.859-4.339,8.797-6.499c0.91-0.471,1.82-0.943,2.729-1.414c0.014-0.006,0.027-0.012,0.041-0.018    c-0.812,0.588-1.624,1.176-2.436,1.765c-0.94,0.755-1.858,1.536-2.824,2.261c-10.669,8.013-14.391,21.386-9.177,32.759    c1.477,3.223,3.675,5.85,6.791,7.792c1.818,1.133,3.73,2.136,5.572,3.238c0.8,0.478,1.529,1.059,2.29,1.593    C31.222,81.114,30.201,80.929,29.28,80.541z M38.457,80.105c-9.386-3.488-15.779-9.437-17.273-19.002    c-0.531-3.4-0.167-6.918-0.265-10.381c-0.014-0.478-0.339-0.949-0.521-1.424c-0.515,0.235-1.302,0.353-1.488,0.729    c-0.379,0.764-0.548,1.66-0.603,2.512c-0.54,8.452,1.689,16.131,7.501,22.787c0.067,0.246,0.134,0.492,0.201,0.738    c-0.178-0.142-0.355-0.283-0.532-0.425c-5.487-2.779-7.714-7.641-8.541-12.876C15.12,51.257,19.694,42.08,29.843,35.293    c0.312-0.209,0.709-0.308,1.067-0.458c-0.126,0.414-0.157,0.883-0.392,1.233c-3.991,5.928-5.819,12.381-5.615,19.362    c0.259,8.857,4.075,16.091,11.38,21.76c0.881,0.684,1.796,1.33,2.658,2.034c0.285,0.233,0.451,0.591,0.671,0.892    C39.225,80.119,38.79,80.229,38.457,80.105z M33.53,73.356l0.219-0.078l-0.199,0.106C33.543,73.375,33.536,73.366,33.53,73.356z     M30.7,60.048c-0.778-4.237-0.351-8.665-0.444-13.007c-0.008-0.377,0.263-0.776,0.196-1.131c-0.061-0.321-0.387-0.823-0.632-0.842    c-0.442-0.034-1.227,0.138-1.314,0.39c-0.378,1.093-0.681,2.236-0.786,3.378c-0.729,7.926,0.815,15.429,4.993,22.419    c0.227,0.633,0.453,1.266,0.68,1.899c-0.357-0.523-0.714-1.047-1.072-1.57c-6.39-7.588-7.489-16.158-5.101-25.221    c0.756-2.87,2.021-5.716,3.597-8.286c2.181-3.556,4.869-6.844,7.343-10.246c0.947,2.581-0.269,4.737-1.529,6.934    c-8.046,14.036-6.559,27.325,3.704,39.909c0.811,0.995,1.532,2.054,2.295,3.083c0.142,0.143,0.285,0.287,0.427,0.43    c-0.221-0.07-0.441-0.139-0.662-0.209C35.947,73.436,32.034,67.32,30.7,60.048z M47.57,67.291    c-0.014,0.457-0.156,0.911-0.238,1.367c-0.233-0.404-0.4-0.862-0.715-1.2c-0.426-0.456-0.966-0.821-1.458-1.225    c-0.219,0.654-0.735,1.365-0.605,1.952c0.626,2.84,1.437,5.644,2.152,8.468c0.087,0.344-0.007,0.728-0.017,1.094    c-0.328-0.185-0.781-0.297-0.965-0.566c-1.551-2.278-3.442-4.442-4.497-6.91c-3.431-8.023-3.466-16.273-0.785-24.48    c1.51-4.622,3.614-9.078,5.087-13.709c1.382-4.342,2.275-8.818,3.418-13.227c0.104-0.4,0.462-0.744,0.702-1.113    c0.069,0.37,0.194,0.739,0.198,1.11c0.019,2.225,0.009,4.451,0.009,6.677c-0.069,0-0.139,0.001-0.208,0.001    c-0.525,7.923-1.138,15.842-1.547,23.77C47.792,55.291,47.748,61.294,47.57,67.291z M52.696,72.471    c-0.065,1.752-0.9,3.479-1.379,5.218c-0.599-1.653-1.394-3.269-1.762-4.964c-1.374-6.33-0.87-12.736-0.551-19.113    c0.619-12.376,1.368-24.746,2.07-37.118c0.025-0.441,0.11-0.879,0.176-1.318c0.288,0.547,0.734,1.08,0.789,1.647    c0.617,6.356,1.635,12.717,1.636,19.077C53.678,48.091,53.145,60.284,52.696,72.471z M54.211,77.408    c-0.004-0.182-0.016-0.364-0.011-0.546c0.11-4.04,0.126-8.085,0.35-12.119c0.761-13.661,0.747-27.318-0.224-40.965    c-0.213-2.986-0.877-5.945-1.332-8.917c-0.147-0.957-0.403-1.916-0.397-2.873c0.005-0.739,0.341-1.476,0.529-2.215    c0.748,0.72,1.547,1.404,2.216,2.182c0.214,0.249,0.147,0.757,0.106,1.137c-0.525,4.85,0.97,9.299,2.615,13.848    c1.958,5.416,2.663,11.135,2.889,17.041c-1.004,10.165-1.92,20.497-5.237,30.481c-0.276,0.831-0.553,1.664-0.89,2.474    C54.742,77.137,54.422,77.253,54.211,77.408z M56.626,78.592c-0.189,0.3-0.561,0.5-0.848,0.746    c-0.023-0.355-0.171-0.751-0.052-1.058c3.486-9.001,4.739-18.394,5.872-27.829c0.676-5.633,0.589-11.195-0.567-16.751    c-0.158-0.759-0.312-1.52-0.41-2.287c-0.033-0.258,0.116-0.536,0.181-0.804c0.271,0.096,0.639,0.118,0.797,0.299    c0.904,1.033,1.963,2.008,2.594,3.177c2.962,5.481,3.704,11.43,3.986,16.497c0.088,5.789-0.983,10.452-3.294,14.716    C62.411,69.86,59.415,74.179,56.626,78.592z M59.273,77.026c0.015-0.021,0.03-0.042,0.045-0.063l0.036,0.227L59.273,77.026z     M59.326,76.952c4.464-5.99,8.169-12.31,9.556-19.587c1.282-6.727,0.27-13.294-1.762-19.779c-0.211-0.674-0.197-1.408-0.288-2.114    c0.623,0.328,1.287,0.604,1.862,0.992c7.603,5.141,9.951,12.714,6.124,20.675c-3.473,7.222-8.585,13.471-14.206,19.364    C60.344,76.784,59.765,76.81,59.326,76.952z M62.513,76.335c3.75-4.886,7.627-9.694,11.234-14.67    c3.868-5.336,5.055-11.195,3.105-17.481c-0.107-0.346-0.098-0.722-0.143-1.084c0.381,0.229,0.872,0.383,1.126,0.7    c1.813,2.266,2.555,4.845,2.477,7.674c-1.092,11.276-6.75,19.951-17.21,25.867c-0.366,0.207-0.916,0.136-1.38,0.194    C61.984,77.135,62.221,76.716,62.513,76.335z M64.777,79.955c-0.418,0.166-0.924,0.142-1.4,0.181    c0.466-0.422,0.887-0.911,1.425-1.227c10.15-5.966,16.027-14.499,17.656-25.512c0.829-5.605-1.193-10.322-5.875-13.957    c-2.319-1.8-4.769-3.456-7.196-5.134c-3.763-2.602-6.419-6.051-8.742-9.755c-0.158-0.252-0.047-0.65-0.061-0.979    c0.253,0.159,0.535,0.289,0.755,0.481c5.456,4.79,10.915,9.576,16.352,14.384c6.39,5.649,8.302,12.702,6.699,20.486    C82.246,69.333,74.978,75.893,64.777,79.955z M81.452,69.77l0.147,0.012c-0.001,0.008-0.002,0.016-0.003,0.024L81.452,69.77z     M82.801,67.771c0.391-1.211,0.711-2.448,1.22-3.615c4.251-9.745,2.348-20.962-7.507-28.317    c-4.46-3.328-8.322-7.337-12.609-10.876c-4.432-3.659-4.968-8.287-4.298-13.289c0.059-0.44,0.612-0.823,0.935-1.232    c0.297,0.457,0.759,0.884,0.858,1.375c0.267,1.328,0.337,2.69,0.562,4.027c0.783,4.654,3.064,8.634,6.62,11.938    c2.43,2.258,5.187,4.217,7.571,6.514c2.88,2.776,5.904,5.531,8.187,8.714C89.689,50.467,88.826,61.15,82.801,67.771z"></path></g></g></svg>